<svg xmlns="http://www.w3.org/2000/svg" xmlns:xlink="http://www.w3.org/1999/xlink" width="500" zoomAndPan="magnify" viewBox="0 0 375 374.999991" height="500" preserveAspectRatio="xMidYMid meet" version="1.0"><defs><g/><clipPath id="79055fa954"><path d="M 34.535156 18.398438 L 339 18.398438 L 339 323 L 34.535156 323 Z M 34.535156 18.398438 " clip-rule="nonzero"/></clipPath><clipPath id="55951023c9"><path d="M 34.535156 52.898438 L 34.535156 289.824219 C 34.535156 308.878906 49.984375 324.324219 69.035156 324.324219 L 305.964844 324.324219 C 325.015625 324.324219 340.464844 308.878906 340.464844 289.824219 L 340.464844 52.898438 C 340.464844 33.84375 325.015625 18.398438 305.964844 18.398438 L 69.035156 18.398438 C 49.984375 18.398438 34.535156 33.84375 34.535156 52.898438 Z M 34.535156 52.898438 " clip-rule="nonzero"/></clipPath><clipPath id="21e817be3e"><path d="M 259.296875 198.890625 L 299.066406 222.285156 C 303.382812 224.804688 304.824219 230.203125 302.304688 234.519531 C 289.347656 256.292969 271.171875 274.289062 249.578125 286.886719 C 228.523438 298.941406 204.050781 305.78125 178.136719 305.78125 C 176.339844 305.78125 174 305.78125 171.300781 305.601562 L 170.941406 305.601562 C 168.242188 311.179688 163.921875 315.679688 158.703125 318.738281 C 151.867188 322.695312 143.585938 323.957031 135.488281 321.796875 C 127.210938 319.636719 120.734375 314.238281 116.773438 307.582031 C 112.816406 300.742188 111.554688 292.464844 113.714844 284.1875 C 115.875 276.089844 121.273438 269.429688 127.933594 265.652344 C 134.769531 261.691406 143.226562 260.253906 151.324219 262.414062 C 159.421875 264.753906 166.082031 269.972656 170.039062 276.808594 C 171.839844 280.046875 173.097656 283.828125 173.820312 287.605469 C 175.078125 287.605469 176.519531 287.785156 178.136719 287.785156 C 200.8125 287.785156 222.226562 281.667969 240.582031 271.230469 C 256.957031 261.691406 271.171875 248.738281 281.96875 233.082031 L 250.300781 214.546875 C 247.597656 218.324219 244.539062 221.742188 241.300781 225.164062 C 225.105469 241.179688 202.792969 251.257812 178.136719 251.257812 C 153.664062 251.257812 131.351562 241.179688 115.15625 225.164062 C 111.734375 221.5625 108.316406 217.605469 105.4375 213.464844 L 65.308594 235.960938 C 60.988281 238.480469 55.410156 236.859375 53.070312 232.542969 L 52.890625 232.542969 C 46.953125 221.5625 42.273438 210.046875 39.214844 198.171875 C 36.15625 186.472656 34.535156 174.417969 34.535156 162 C 34.535156 146.882812 36.875 132.308594 41.195312 118.632812 C 45.152344 106.214844 50.730469 94.699219 57.570312 84.082031 C 53.972656 78.863281 52.351562 72.925781 52.351562 66.804688 C 52.351562 59.066406 55.230469 51.148438 61.347656 45.210938 C 67.289062 39.09375 75.207031 36.214844 82.945312 36.214844 C 90.863281 36.214844 98.78125 39.09375 104.71875 45.210938 C 110.65625 51.148438 113.714844 59.066406 113.714844 66.804688 C 113.714844 74.722656 110.65625 82.640625 104.71875 88.578125 C 98.78125 94.519531 90.863281 97.578125 82.945312 97.578125 C 79.164062 97.578125 75.386719 96.859375 71.785156 95.417969 C 66.207031 104.234375 61.710938 113.953125 58.46875 124.03125 C 54.691406 136.085938 52.53125 148.863281 52.53125 162 C 52.53125 172.976562 53.972656 183.59375 56.671875 193.671875 C 58.648438 201.230469 61.347656 208.609375 64.589844 215.625 L 96.621094 197.808594 C 91.761719 186.832031 89.0625 174.777344 89.0625 162 C 89.0625 137.527344 99.140625 115.210938 115.15625 99.015625 C 129.371094 84.980469 148.265625 75.625 169.140625 73.464844 L 169.140625 27.394531 C 169.140625 22.359375 173.28125 18.398438 178.136719 18.398438 C 206.570312 18.398438 233.203125 26.675781 255.515625 41.074219 C 276.933594 54.75 294.566406 73.824219 306.082031 96.675781 C 312.382812 96.136719 318.5 97.578125 323.539062 100.636719 L 323.71875 100.636719 C 330.378906 104.59375 335.777344 111.074219 337.933594 119.351562 C 340.09375 127.449219 338.835938 135.726562 334.875 142.566406 C 330.917969 149.402344 324.4375 154.800781 316.160156 156.960938 C 308.0625 159.121094 299.785156 157.679688 292.949219 153.902344 L 292.949219 153.722656 L 292.949219 153.902344 C 286.109375 149.941406 280.890625 143.285156 278.550781 135.1875 C 276.390625 127.089844 277.832031 118.8125 281.789062 111.972656 L 281.789062 111.792969 C 283.589844 108.554688 286.109375 105.496094 289.167969 103.15625 C 279.089844 84.082031 263.976562 67.886719 245.800781 56.1875 C 228.703125 45.210938 208.730469 38.375 187.316406 36.753906 L 187.316406 73.464844 C 208.191406 75.625 227.085938 84.980469 241.300781 99.015625 C 257.316406 115.210938 267.394531 137.527344 267.394531 162 C 267.394531 175.316406 264.515625 187.734375 259.296875 198.890625 Z M 228.523438 111.792969 C 215.566406 99.015625 197.753906 91.097656 178.136719 91.097656 C 158.703125 91.097656 140.886719 99.015625 127.933594 111.792969 C 115.15625 124.75 107.238281 142.566406 107.238281 162 C 107.238281 181.613281 115.15625 199.429688 127.933594 212.386719 C 140.886719 225.164062 158.703125 233.082031 178.136719 233.082031 C 197.753906 233.082031 215.566406 225.164062 228.523438 212.386719 C 241.300781 199.429688 249.21875 181.613281 249.21875 162 C 249.21875 142.566406 241.300781 124.75 228.523438 111.792969 Z M 178.136719 125.648438 C 188.214844 125.648438 197.394531 129.789062 203.871094 136.445312 C 210.53125 142.925781 214.667969 152.101562 214.667969 162 C 214.667969 172.078125 210.53125 181.253906 203.871094 187.734375 C 197.394531 194.390625 188.214844 198.53125 178.136719 198.53125 C 168.242188 198.53125 159.0625 194.390625 152.585938 187.734375 C 145.925781 181.253906 141.789062 172.078125 141.789062 162 C 141.789062 152.101562 145.925781 142.925781 152.585938 136.445312 C 159.0625 129.789062 168.242188 125.648438 178.136719 125.648438 Z M 191.09375 149.222656 C 187.855469 145.804688 183.355469 143.824219 178.136719 143.824219 C 173.097656 143.824219 168.601562 145.804688 165.363281 149.222656 C 161.941406 152.460938 159.964844 156.960938 159.964844 162 C 159.964844 167.21875 161.941406 171.71875 165.363281 174.957031 C 168.601562 178.375 173.097656 180.355469 178.136719 180.355469 C 183.355469 180.355469 187.855469 178.375 191.09375 174.957031 C 194.515625 171.71875 196.492188 167.21875 196.492188 162 C 196.492188 156.960938 194.515625 152.460938 191.09375 149.222656 Z M 82.945312 54.207031 C 79.703125 54.207031 76.464844 55.46875 74.125 57.988281 C 71.605469 60.328125 70.347656 63.566406 70.347656 66.804688 C 70.347656 70.042969 71.605469 73.285156 74.125 75.804688 C 76.464844 78.324219 79.703125 79.582031 82.945312 79.582031 C 86.183594 79.582031 89.421875 78.324219 91.941406 75.804688 C 94.460938 73.285156 95.71875 70.042969 95.71875 66.804688 C 95.71875 63.566406 94.460938 60.328125 91.941406 57.988281 C 89.421875 55.46875 86.183594 54.207031 82.945312 54.207031 Z M 132.429688 298.402344 C 134.050781 301.28125 136.75 303.441406 140.167969 304.339844 C 143.40625 305.242188 146.828125 304.703125 149.707031 303.082031 C 152.585938 301.460938 154.746094 298.761719 155.644531 295.523438 C 156.542969 292.105469 156.003906 288.6875 154.382812 285.808594 C 152.765625 283.109375 150.066406 280.769531 146.648438 279.867188 C 143.226562 278.96875 139.808594 279.507812 137.109375 281.128906 C 134.230469 282.746094 132.070312 285.445312 131.171875 288.867188 C 130.269531 292.285156 130.8125 295.703125 132.429688 298.402344 Z M 319.21875 133.566406 C 320.839844 130.6875 321.378906 127.269531 320.480469 124.03125 C 319.582031 120.609375 317.421875 117.910156 314.542969 116.292969 C 311.84375 114.671875 308.421875 114.132812 305.003906 115.03125 C 301.585938 115.933594 298.886719 118.089844 297.265625 120.972656 C 295.648438 123.671875 295.105469 127.089844 296.007812 130.507812 C 296.90625 133.925781 299.246094 136.625 301.945312 138.246094 C 304.824219 139.867188 308.242188 140.40625 311.664062 139.507812 C 314.902344 138.605469 317.601562 136.445312 319.21875 133.566406 Z M 319.21875 133.566406 " clip-rule="nonzero"/></clipPath><linearGradient x1="5.467643" gradientTransform="matrix(17.995174, 0, 0, 17.995174, 34.536743, 18.39847)" y1="18.393143" x2="10.644645" gradientUnits="userSpaceOnUse" y2="-1.637404" id="950cefe340"><stop stop-opacity="1" stop-color="rgb(4.838562%, 0%, 95.198059%)" offset="0"/><stop stop-opacity="1" stop-color="rgb(5.218506%, 0%, 94.821167%)" offset="0.00390625"/><stop stop-opacity="1" stop-color="rgb(5.59845%, 0%, 94.444275%)" offset="0.0078125"/><stop stop-opacity="1" stop-color="rgb(5.978394%, 0%, 94.067383%)" offset="0.0117188"/><stop stop-opacity="1" stop-color="rgb(6.358337%, 0%, 93.692017%)" offset="0.015625"/><stop stop-opacity="1" stop-color="rgb(6.738281%, 0%, 93.315125%)" offset="0.0195313"/><stop stop-opacity="1" stop-color="rgb(7.118225%, 0%, 92.938232%)" offset="0.0234375"/><stop stop-opacity="1" stop-color="rgb(7.496643%, 0%, 92.56134%)" offset="0.0273438"/><stop stop-opacity="1" stop-color="rgb(7.876587%, 0%, 92.184448%)" offset="0.03125"/><stop stop-opacity="1" stop-color="rgb(8.256531%, 0%, 91.807556%)" offset="0.0351563"/><stop stop-opacity="1" stop-color="rgb(8.636475%, 0%, 91.430664%)" offset="0.0390625"/><stop stop-opacity="1" stop-color="rgb(9.016418%, 0%, 91.053772%)" offset="0.0429688"/><stop stop-opacity="1" stop-color="rgb(9.396362%, 0%, 90.67688%)" offset="0.046875"/><stop stop-opacity="1" stop-color="rgb(9.776306%, 0%, 90.299988%)" offset="0.0507813"/><stop stop-opacity="1" stop-color="rgb(10.15625%, 0%, 89.923096%)" offset="0.0546875"/><stop stop-opacity="1" stop-color="rgb(10.536194%, 0%, 89.546204%)" offset="0.0585938"/><stop stop-opacity="1" stop-color="rgb(10.916138%, 0%, 89.169312%)" offset="0.0625"/><stop stop-opacity="1" stop-color="rgb(11.296082%, 0%, 88.792419%)" offset="0.0664063"/><stop stop-opacity="1" stop-color="rgb(11.676025%, 0%, 88.415527%)" offset="0.0703125"/><stop stop-opacity="1" stop-color="rgb(12.055969%, 0%, 88.038635%)" offset="0.0742188"/><stop stop-opacity="1" stop-color="rgb(12.435913%, 0%, 87.661743%)" offset="0.078125"/><stop stop-opacity="1" stop-color="rgb(12.814331%, 0%, 87.284851%)" offset="0.0820312"/><stop stop-opacity="1" stop-color="rgb(13.194275%, 0%, 86.907959%)" offset="0.0859375"/><stop stop-opacity="1" stop-color="rgb(13.574219%, 0%, 86.531067%)" offset="0.0898438"/><stop stop-opacity="1" stop-color="rgb(13.954163%, 0%, 86.155701%)" offset="0.09375"/><stop stop-opacity="1" stop-color="rgb(14.334106%, 0%, 85.778809%)" offset="0.0976562"/><stop stop-opacity="1" stop-color="rgb(14.71405%, 0%, 85.401917%)" offset="0.101563"/><stop stop-opacity="1" stop-color="rgb(15.093994%, 0%, 85.025024%)" offset="0.105469"/><stop stop-opacity="1" stop-color="rgb(15.473938%, 0%, 84.648132%)" offset="0.109375"/><stop stop-opacity="1" stop-color="rgb(15.853882%, 0%, 84.27124%)" offset="0.113281"/><stop stop-opacity="1" stop-color="rgb(16.233826%, 0%, 83.894348%)" offset="0.117188"/><stop stop-opacity="1" stop-color="rgb(16.61377%, 0%, 83.517456%)" offset="0.121094"/><stop stop-opacity="1" stop-color="rgb(16.993713%, 0%, 83.140564%)" offset="0.125"/><stop stop-opacity="1" stop-color="rgb(17.373657%, 0%, 82.763672%)" offset="0.128906"/><stop stop-opacity="1" stop-color="rgb(17.753601%, 0%, 82.38678%)" offset="0.132813"/><stop stop-opacity="1" stop-color="rgb(18.133545%, 0%, 82.009888%)" offset="0.136719"/><stop stop-opacity="1" stop-color="rgb(18.513489%, 0%, 81.632996%)" offset="0.140625"/><stop stop-opacity="1" stop-color="rgb(18.891907%, 0%, 81.256104%)" offset="0.144531"/><stop stop-opacity="1" stop-color="rgb(19.271851%, 0%, 80.879211%)" offset="0.148438"/><stop stop-opacity="1" stop-color="rgb(19.651794%, 0%, 80.502319%)" offset="0.152344"/><stop stop-opacity="1" stop-color="rgb(20.031738%, 0%, 80.125427%)" offset="0.15625"/><stop stop-opacity="1" stop-color="rgb(20.411682%, 0%, 79.748535%)" offset="0.160156"/><stop stop-opacity="1" stop-color="rgb(20.791626%, 0%, 79.371643%)" offset="0.164063"/><stop stop-opacity="1" stop-color="rgb(21.17157%, 0%, 78.994751%)" offset="0.167969"/><stop stop-opacity="1" stop-color="rgb(21.551514%, 0%, 78.619385%)" offset="0.171875"/><stop stop-opacity="1" stop-color="rgb(21.931458%, 0%, 78.242493%)" offset="0.175781"/><stop stop-opacity="1" stop-color="rgb(22.311401%, 0%, 77.865601%)" offset="0.179688"/><stop stop-opacity="1" stop-color="rgb(22.691345%, 0%, 77.488708%)" offset="0.183594"/><stop stop-opacity="1" stop-color="rgb(23.071289%, 0%, 77.111816%)" offset="0.1875"/><stop stop-opacity="1" stop-color="rgb(23.451233%, 0%, 76.734924%)" offset="0.191406"/><stop stop-opacity="1" stop-color="rgb(23.831177%, 0%, 76.358032%)" offset="0.195313"/><stop stop-opacity="1" stop-color="rgb(24.209595%, 0%, 75.98114%)" offset="0.199219"/><stop stop-opacity="1" stop-color="rgb(24.589539%, 0%, 75.604248%)" offset="0.203125"/><stop stop-opacity="1" stop-color="rgb(24.969482%, 0%, 75.227356%)" offset="0.207031"/><stop stop-opacity="1" stop-color="rgb(25.349426%, 0%, 74.850464%)" offset="0.210938"/><stop stop-opacity="1" stop-color="rgb(25.72937%, 0%, 74.473572%)" offset="0.214844"/><stop stop-opacity="1" stop-color="rgb(26.109314%, 0%, 74.09668%)" offset="0.21875"/><stop stop-opacity="1" stop-color="rgb(26.489258%, 0%, 73.719788%)" offset="0.222656"/><stop stop-opacity="1" stop-color="rgb(26.869202%, 0%, 73.342896%)" offset="0.226563"/><stop stop-opacity="1" stop-color="rgb(27.249146%, 0%, 72.966003%)" offset="0.230469"/><stop stop-opacity="1" stop-color="rgb(27.629089%, 0%, 72.589111%)" offset="0.234375"/><stop stop-opacity="1" stop-color="rgb(28.009033%, 0%, 72.212219%)" offset="0.238281"/><stop stop-opacity="1" stop-color="rgb(28.388977%, 0%, 71.835327%)" offset="0.242188"/><stop stop-opacity="1" stop-color="rgb(28.768921%, 0%, 71.458435%)" offset="0.246094"/><stop stop-opacity="1" stop-color="rgb(29.148865%, 0%, 71.083069%)" offset="0.25"/><stop stop-opacity="1" stop-color="rgb(29.528809%, 0%, 70.706177%)" offset="0.253906"/><stop stop-opacity="1" stop-color="rgb(29.908752%, 0%, 70.329285%)" offset="0.257813"/><stop stop-opacity="1" stop-color="rgb(30.28717%, 0%, 69.952393%)" offset="0.261719"/><stop stop-opacity="1" stop-color="rgb(30.667114%, 0%, 69.5755%)" offset="0.265625"/><stop stop-opacity="1" stop-color="rgb(31.047058%, 0%, 69.198608%)" offset="0.269531"/><stop stop-opacity="1" stop-color="rgb(31.427002%, 0%, 68.821716%)" offset="0.273438"/><stop stop-opacity="1" stop-color="rgb(31.806946%, 0%, 68.444824%)" offset="0.277344"/><stop stop-opacity="1" stop-color="rgb(32.18689%, 0%, 68.067932%)" offset="0.28125"/><stop stop-opacity="1" stop-color="rgb(32.566833%, 0%, 67.69104%)" offset="0.285156"/><stop stop-opacity="1" stop-color="rgb(32.946777%, 0%, 67.314148%)" offset="0.289063"/><stop stop-opacity="1" stop-color="rgb(33.326721%, 0%, 66.937256%)" offset="0.292969"/><stop stop-opacity="1" stop-color="rgb(33.706665%, 0%, 66.560364%)" offset="0.296875"/><stop stop-opacity="1" stop-color="rgb(34.086609%, 0%, 66.183472%)" offset="0.300781"/><stop stop-opacity="1" stop-color="rgb(34.466553%, 0%, 65.80658%)" offset="0.304688"/><stop stop-opacity="1" stop-color="rgb(34.846497%, 0%, 65.429688%)" offset="0.308594"/><stop stop-opacity="1" stop-color="rgb(35.22644%, 0%, 65.052795%)" offset="0.3125"/><stop stop-opacity="1" stop-color="rgb(35.604858%, 0%, 64.675903%)" offset="0.316406"/><stop stop-opacity="1" stop-color="rgb(35.984802%, 0%, 64.299011%)" offset="0.320313"/><stop stop-opacity="1" stop-color="rgb(36.364746%, 0%, 63.922119%)" offset="0.324219"/><stop stop-opacity="1" stop-color="rgb(36.74469%, 0%, 63.546753%)" offset="0.328125"/><stop stop-opacity="1" stop-color="rgb(37.124634%, 0%, 63.169861%)" offset="0.332031"/><stop stop-opacity="1" stop-color="rgb(37.504578%, 0%, 62.792969%)" offset="0.335938"/><stop stop-opacity="1" stop-color="rgb(37.884521%, 0%, 62.416077%)" offset="0.339844"/><stop stop-opacity="1" stop-color="rgb(38.264465%, 0%, 62.039185%)" offset="0.34375"/><stop stop-opacity="1" stop-color="rgb(38.644409%, 0%, 61.662292%)" offset="0.347656"/><stop stop-opacity="1" stop-color="rgb(39.024353%, 0%, 61.2854%)" offset="0.351563"/><stop stop-opacity="1" stop-color="rgb(39.404297%, 0%, 60.908508%)" offset="0.355469"/><stop stop-opacity="1" stop-color="rgb(39.784241%, 0%, 60.531616%)" offset="0.359375"/><stop stop-opacity="1" stop-color="rgb(40.164185%, 0%, 60.154724%)" offset="0.363281"/><stop stop-opacity="1" stop-color="rgb(40.544128%, 0%, 59.777832%)" offset="0.367188"/><stop stop-opacity="1" stop-color="rgb(40.922546%, 0%, 59.40094%)" offset="0.371094"/><stop stop-opacity="1" stop-color="rgb(41.30249%, 0%, 59.024048%)" offset="0.375"/><stop stop-opacity="1" stop-color="rgb(41.682434%, 0%, 58.647156%)" offset="0.378906"/><stop stop-opacity="1" stop-color="rgb(42.062378%, 0%, 58.270264%)" offset="0.382812"/><stop stop-opacity="1" stop-color="rgb(42.442322%, 0%, 57.893372%)" offset="0.386719"/><stop stop-opacity="1" stop-color="rgb(42.822266%, 0%, 57.516479%)" offset="0.390625"/><stop stop-opacity="1" stop-color="rgb(43.202209%, 0%, 57.139587%)" offset="0.394531"/><stop stop-opacity="1" stop-color="rgb(43.582153%, 0%, 56.764221%)" offset="0.398438"/><stop stop-opacity="1" stop-color="rgb(43.962097%, 0%, 56.387329%)" offset="0.402344"/><stop stop-opacity="1" stop-color="rgb(44.342041%, 0%, 56.010437%)" offset="0.40625"/><stop stop-opacity="1" stop-color="rgb(44.721985%, 0%, 55.633545%)" offset="0.410156"/><stop stop-opacity="1" stop-color="rgb(45.101929%, 0%, 55.256653%)" offset="0.414063"/><stop stop-opacity="1" stop-color="rgb(45.481873%, 0%, 54.879761%)" offset="0.417969"/><stop stop-opacity="1" stop-color="rgb(45.861816%, 0%, 54.502869%)" offset="0.421875"/><stop stop-opacity="1" stop-color="rgb(46.24176%, 0%, 54.125977%)" offset="0.425781"/><stop stop-opacity="1" stop-color="rgb(46.621704%, 0%, 53.749084%)" offset="0.429688"/><stop stop-opacity="1" stop-color="rgb(47.000122%, 0%, 53.372192%)" offset="0.433594"/><stop stop-opacity="1" stop-color="rgb(47.380066%, 0%, 52.9953%)" offset="0.4375"/><stop stop-opacity="1" stop-color="rgb(47.76001%, 0%, 52.618408%)" offset="0.441406"/><stop stop-opacity="1" stop-color="rgb(48.139954%, 0%, 52.241516%)" offset="0.445313"/><stop stop-opacity="1" stop-color="rgb(48.519897%, 0%, 51.864624%)" offset="0.449219"/><stop stop-opacity="1" stop-color="rgb(48.899841%, 0%, 51.487732%)" offset="0.453125"/><stop stop-opacity="1" stop-color="rgb(49.279785%, 0%, 51.11084%)" offset="0.457031"/><stop stop-opacity="1" stop-color="rgb(49.659729%, 0%, 50.733948%)" offset="0.460938"/><stop stop-opacity="1" stop-color="rgb(49.989319%, 0.180054%, 50.526428%)" offset="0.464844"/><stop stop-opacity="1" stop-color="rgb(50.318909%, 0.360107%, 50.318909%)" offset="0.46875"/><stop stop-opacity="1" stop-color="rgb(50.526428%, 0.98114%, 50.526428%)" offset="0.472656"/><stop stop-opacity="1" stop-color="rgb(50.733948%, 1.603699%, 50.733948%)" offset="0.476563"/><stop stop-opacity="1" stop-color="rgb(50.941467%, 2.226257%, 50.941467%)" offset="0.480469"/><stop stop-opacity="1" stop-color="rgb(51.148987%, 2.848816%, 51.148987%)" offset="0.484375"/><stop stop-opacity="1" stop-color="rgb(51.356506%, 3.469849%, 51.356506%)" offset="0.488281"/><stop stop-opacity="1" stop-color="rgb(51.564026%, 4.092407%, 51.564026%)" offset="0.492188"/><stop stop-opacity="1" stop-color="rgb(51.771545%, 4.714966%, 51.771545%)" offset="0.496094"/><stop stop-opacity="1" stop-color="rgb(51.979065%, 5.337524%, 51.979065%)" offset="0.5"/><stop stop-opacity="1" stop-color="rgb(52.186584%, 5.960083%, 52.186584%)" offset="0.503906"/><stop stop-opacity="1" stop-color="rgb(52.394104%, 6.582642%, 52.394104%)" offset="0.507813"/><stop stop-opacity="1" stop-color="rgb(52.600098%, 7.203674%, 52.600098%)" offset="0.511719"/><stop stop-opacity="1" stop-color="rgb(52.807617%, 7.826233%, 52.807617%)" offset="0.515625"/><stop stop-opacity="1" stop-color="rgb(53.015137%, 8.448792%, 53.015137%)" offset="0.519531"/><stop stop-opacity="1" stop-color="rgb(53.222656%, 9.07135%, 53.222656%)" offset="0.523438"/><stop stop-opacity="1" stop-color="rgb(53.430176%, 9.692383%, 53.430176%)" offset="0.527344"/><stop stop-opacity="1" stop-color="rgb(53.637695%, 10.314941%, 53.637695%)" offset="0.53125"/><stop stop-opacity="1" stop-color="rgb(53.845215%, 10.9375%, 53.845215%)" offset="0.535156"/><stop stop-opacity="1" stop-color="rgb(54.052734%, 11.560059%, 54.052734%)" offset="0.539063"/><stop stop-opacity="1" stop-color="rgb(54.260254%, 12.181091%, 54.260254%)" offset="0.542969"/><stop stop-opacity="1" stop-color="rgb(54.467773%, 12.80365%, 54.467773%)" offset="0.546875"/><stop stop-opacity="1" stop-color="rgb(54.675293%, 13.426208%, 54.675293%)" offset="0.550781"/><stop stop-opacity="1" stop-color="rgb(54.882812%, 14.048767%, 54.882812%)" offset="0.554688"/><stop stop-opacity="1" stop-color="rgb(55.090332%, 14.6698%, 55.090332%)" offset="0.558594"/><stop stop-opacity="1" stop-color="rgb(55.297852%, 15.292358%, 55.297852%)" offset="0.5625"/><stop stop-opacity="1" stop-color="rgb(55.503845%, 15.914917%, 55.503845%)" offset="0.566406"/><stop stop-opacity="1" stop-color="rgb(55.711365%, 16.537476%, 55.711365%)" offset="0.570312"/><stop stop-opacity="1" stop-color="rgb(55.918884%, 17.158508%, 55.918884%)" offset="0.574219"/><stop stop-opacity="1" stop-color="rgb(56.126404%, 17.781067%, 56.126404%)" offset="0.578125"/><stop stop-opacity="1" stop-color="rgb(56.333923%, 18.403625%, 56.333923%)" offset="0.582031"/><stop stop-opacity="1" stop-color="rgb(56.541443%, 19.026184%, 56.541443%)" offset="0.585938"/><stop stop-opacity="1" stop-color="rgb(56.748962%, 19.648743%, 56.748962%)" offset="0.589844"/><stop stop-opacity="1" stop-color="rgb(56.956482%, 20.271301%, 56.956482%)" offset="0.59375"/><stop stop-opacity="1" stop-color="rgb(57.164001%, 20.892334%, 57.164001%)" offset="0.597656"/><stop stop-opacity="1" stop-color="rgb(57.371521%, 21.514893%, 57.371521%)" offset="0.601563"/><stop stop-opacity="1" stop-color="rgb(57.579041%, 22.137451%, 57.579041%)" offset="0.605469"/><stop stop-opacity="1" stop-color="rgb(57.78656%, 22.76001%, 57.78656%)" offset="0.609375"/><stop stop-opacity="1" stop-color="rgb(57.992554%, 23.381042%, 57.992554%)" offset="0.613281"/><stop stop-opacity="1" stop-color="rgb(58.200073%, 24.003601%, 58.200073%)" offset="0.617188"/><stop stop-opacity="1" stop-color="rgb(58.407593%, 24.62616%, 58.407593%)" offset="0.621094"/><stop stop-opacity="1" stop-color="rgb(58.615112%, 25.248718%, 58.615112%)" offset="0.625"/><stop stop-opacity="1" stop-color="rgb(58.822632%, 25.869751%, 58.822632%)" offset="0.628906"/><stop stop-opacity="1" stop-color="rgb(59.030151%, 26.49231%, 59.030151%)" offset="0.632812"/><stop stop-opacity="1" stop-color="rgb(59.237671%, 27.114868%, 59.237671%)" offset="0.636719"/><stop stop-opacity="1" stop-color="rgb(59.44519%, 27.737427%, 59.44519%)" offset="0.640625"/><stop stop-opacity="1" stop-color="rgb(59.65271%, 28.358459%, 59.65271%)" offset="0.644531"/><stop stop-opacity="1" stop-color="rgb(59.860229%, 28.981018%, 59.860229%)" offset="0.648438"/><stop stop-opacity="1" stop-color="rgb(60.067749%, 29.603577%, 60.067749%)" offset="0.652344"/><stop stop-opacity="1" stop-color="rgb(60.275269%, 30.226135%, 60.275269%)" offset="0.65625"/><stop stop-opacity="1" stop-color="rgb(60.482788%, 30.847168%, 60.482788%)" offset="0.660156"/><stop stop-opacity="1" stop-color="rgb(60.690308%, 31.469727%, 60.690308%)" offset="0.664063"/><stop stop-opacity="1" stop-color="rgb(60.896301%, 32.092285%, 60.896301%)" offset="0.667969"/><stop stop-opacity="1" stop-color="rgb(61.103821%, 32.714844%, 61.103821%)" offset="0.671875"/><stop stop-opacity="1" stop-color="rgb(61.31134%, 33.335876%, 61.31134%)" offset="0.675781"/><stop stop-opacity="1" stop-color="rgb(61.51886%, 33.958435%, 61.51886%)" offset="0.679688"/><stop stop-opacity="1" stop-color="rgb(61.726379%, 34.580994%, 61.726379%)" offset="0.683594"/><stop stop-opacity="1" stop-color="rgb(61.933899%, 35.203552%, 61.933899%)" offset="0.6875"/><stop stop-opacity="1" stop-color="rgb(62.141418%, 35.826111%, 62.141418%)" offset="0.691406"/><stop stop-opacity="1" stop-color="rgb(62.348938%, 36.448669%, 62.348938%)" offset="0.695312"/><stop stop-opacity="1" stop-color="rgb(62.556458%, 37.069702%, 62.556458%)" offset="0.699219"/><stop stop-opacity="1" stop-color="rgb(62.763977%, 37.692261%, 62.763977%)" offset="0.703125"/><stop stop-opacity="1" stop-color="rgb(62.971497%, 38.314819%, 62.971497%)" offset="0.707031"/><stop stop-opacity="1" stop-color="rgb(63.179016%, 38.937378%, 63.179016%)" offset="0.710938"/><stop stop-opacity="1" stop-color="rgb(63.38501%, 39.558411%, 63.38501%)" offset="0.714844"/><stop stop-opacity="1" stop-color="rgb(63.592529%, 40.180969%, 63.592529%)" offset="0.71875"/><stop stop-opacity="1" stop-color="rgb(63.800049%, 40.803528%, 63.800049%)" offset="0.722656"/><stop stop-opacity="1" stop-color="rgb(64.007568%, 41.426086%, 64.007568%)" offset="0.726563"/><stop stop-opacity="1" stop-color="rgb(64.215088%, 42.047119%, 64.215088%)" offset="0.730469"/><stop stop-opacity="1" stop-color="rgb(64.422607%, 42.669678%, 64.422607%)" offset="0.734375"/><stop stop-opacity="1" stop-color="rgb(64.630127%, 43.292236%, 64.630127%)" offset="0.738281"/><stop stop-opacity="1" stop-color="rgb(64.837646%, 43.914795%, 64.837646%)" offset="0.742188"/><stop stop-opacity="1" stop-color="rgb(65.045166%, 44.535828%, 65.045166%)" offset="0.746094"/><stop stop-opacity="1" stop-color="rgb(65.252686%, 45.158386%, 65.252686%)" offset="0.75"/><stop stop-opacity="1" stop-color="rgb(65.460205%, 45.780945%, 65.460205%)" offset="0.753906"/><stop stop-opacity="1" stop-color="rgb(65.667725%, 46.403503%, 65.667725%)" offset="0.757813"/><stop stop-opacity="1" stop-color="rgb(65.875244%, 47.024536%, 65.875244%)" offset="0.761719"/><stop stop-opacity="1" stop-color="rgb(66.082764%, 47.647095%, 66.082764%)" offset="0.765625"/><stop stop-opacity="1" stop-color="rgb(66.288757%, 48.269653%, 66.288757%)" offset="0.769531"/><stop stop-opacity="1" stop-color="rgb(66.496277%, 48.892212%, 66.496277%)" offset="0.773438"/><stop stop-opacity="1" stop-color="rgb(66.703796%, 49.513245%, 66.703796%)" offset="0.777344"/><stop stop-opacity="1" stop-color="rgb(66.911316%, 50.135803%, 66.911316%)" offset="0.78125"/><stop stop-opacity="1" stop-color="rgb(67.118835%, 50.758362%, 67.118835%)" offset="0.785156"/><stop stop-opacity="1" stop-color="rgb(67.326355%, 51.38092%, 67.326355%)" offset="0.789063"/><stop stop-opacity="1" stop-color="rgb(67.533875%, 52.003479%, 67.533875%)" offset="0.792969"/><stop stop-opacity="1" stop-color="rgb(67.741394%, 52.626038%, 67.741394%)" offset="0.796875"/><stop stop-opacity="1" stop-color="rgb(67.948914%, 53.24707%, 67.948914%)" offset="0.800781"/><stop stop-opacity="1" stop-color="rgb(68.156433%, 53.869629%, 68.156433%)" offset="0.804688"/><stop stop-opacity="1" stop-color="rgb(68.363953%, 54.492188%, 68.363953%)" offset="0.808594"/><stop stop-opacity="1" stop-color="rgb(68.571472%, 55.114746%, 68.571472%)" offset="0.8125"/><stop stop-opacity="1" stop-color="rgb(68.777466%, 55.735779%, 68.777466%)" offset="0.816406"/><stop stop-opacity="1" stop-color="rgb(68.984985%, 56.358337%, 68.984985%)" offset="0.820313"/><stop stop-opacity="1" stop-color="rgb(69.192505%, 56.980896%, 69.192505%)" offset="0.824219"/><stop stop-opacity="1" stop-color="rgb(69.400024%, 57.603455%, 69.400024%)" offset="0.828125"/><stop stop-opacity="1" stop-color="rgb(69.607544%, 58.224487%, 69.607544%)" offset="0.832031"/><stop stop-opacity="1" stop-color="rgb(69.815063%, 58.847046%, 69.815063%)" offset="0.835938"/><stop stop-opacity="1" stop-color="rgb(70.022583%, 59.469604%, 70.022583%)" offset="0.839844"/><stop stop-opacity="1" stop-color="rgb(70.230103%, 60.092163%, 70.230103%)" offset="0.84375"/><stop stop-opacity="1" stop-color="rgb(70.437622%, 60.713196%, 70.437622%)" offset="0.847656"/><stop stop-opacity="1" stop-color="rgb(70.645142%, 61.335754%, 70.645142%)" offset="0.851563"/><stop stop-opacity="1" stop-color="rgb(70.852661%, 61.958313%, 70.852661%)" offset="0.855469"/><stop stop-opacity="1" stop-color="rgb(71.060181%, 62.580872%, 71.060181%)" offset="0.859375"/><stop stop-opacity="1" stop-color="rgb(71.2677%, 63.201904%, 71.2677%)" offset="0.863281"/><stop stop-opacity="1" stop-color="rgb(71.47522%, 63.824463%, 71.47522%)" offset="0.867188"/><stop stop-opacity="1" stop-color="rgb(71.681213%, 64.447021%, 71.681213%)" offset="0.871094"/><stop stop-opacity="1" stop-color="rgb(71.888733%, 65.06958%, 71.888733%)" offset="0.875"/><stop stop-opacity="1" stop-color="rgb(72.096252%, 65.692139%, 72.096252%)" offset="0.878906"/><stop stop-opacity="1" stop-color="rgb(72.303772%, 66.314697%, 72.303772%)" offset="0.882813"/><stop stop-opacity="1" stop-color="rgb(72.511292%, 66.93573%, 72.511292%)" offset="0.886719"/><stop stop-opacity="1" stop-color="rgb(72.718811%, 67.558289%, 72.718811%)" offset="0.890625"/><stop stop-opacity="1" stop-color="rgb(72.926331%, 68.180847%, 72.926331%)" offset="0.894531"/><stop stop-opacity="1" stop-color="rgb(73.13385%, 68.803406%, 73.13385%)" offset="0.898438"/><stop stop-opacity="1" stop-color="rgb(73.34137%, 69.424438%, 73.34137%)" offset="0.902344"/><stop stop-opacity="1" stop-color="rgb(73.548889%, 70.046997%, 73.548889%)" offset="0.90625"/><stop stop-opacity="1" stop-color="rgb(73.756409%, 70.669556%, 73.756409%)" offset="0.910156"/><stop stop-opacity="1" stop-color="rgb(73.963928%, 71.292114%, 73.963928%)" offset="0.914063"/><stop stop-opacity="1" stop-color="rgb(74.169922%, 71.913147%, 74.169922%)" offset="0.917969"/><stop stop-opacity="1" stop-color="rgb(74.377441%, 72.535706%, 74.377441%)" offset="0.921875"/><stop stop-opacity="1" stop-color="rgb(74.584961%, 73.158264%, 74.584961%)" offset="0.925781"/><stop stop-opacity="1" stop-color="rgb(74.79248%, 73.780823%, 74.79248%)" offset="0.929688"/><stop stop-opacity="1" stop-color="rgb(75%, 74.401855%, 75%)" offset="0.933594"/><stop stop-opacity="1" stop-color="rgb(75.20752%, 75.024414%, 75.20752%)" offset="0.9375"/><stop stop-opacity="1" stop-color="rgb(75.253296%, 75.161743%, 75.253296%)" offset="1"/></linearGradient></defs><g clip-path="url(#79055fa954)"><g clip-path="url(#55951023c9)"><g clip-path="url(#21e817be3e)"><path fill="url(#950cefe340)" d="M 34.535156 18.398438 L 34.535156 323.957031 L 340.09375 323.957031 L 340.09375 18.398438 Z M 34.535156 18.398438 " fill-rule="nonzero"/></g></g></g><g fill="#004aad" fill-opacity="1"><g transform="translate(106.042967, 353.274997)"><g><path d="M 10.984375 -17.75 C 10.878906 -17.769531 10.796875 -17.785156 10.734375 -17.796875 C 10.679688 -17.804688 10.632812 -17.8125 10.59375 -17.8125 C 10.300781 -17.8125 9.957031 -17.785156 9.5625 -17.734375 C 9.164062 -17.679688 8.847656 -17.597656 8.609375 -17.484375 C 8.546875 -17.460938 8.515625 -17.144531 8.515625 -16.53125 C 8.535156 -16.226562 8.535156 -16.003906 8.515625 -15.859375 C 8.492188 -15.710938 8.472656 -15.628906 8.453125 -15.609375 C 8.398438 -15.566406 8.375 -15.316406 8.375 -14.859375 C 8.375 -14.410156 8.363281 -13.757812 8.34375 -12.90625 C 8.34375 -12.175781 8.34375 -11.585938 8.34375 -11.140625 C 8.34375 -10.691406 8.332031 -10.410156 8.3125 -10.296875 C 8.289062 -10.160156 8.28125 -10.0625 8.28125 -10 C 8.28125 -9.9375 8.335938 -9.90625 8.453125 -9.90625 C 8.515625 -9.90625 8.597656 -9.914062 8.703125 -9.9375 C 8.816406 -9.957031 8.960938 -9.988281 9.140625 -10.03125 C 10.640625 -10.34375 11.742188 -10.769531 12.453125 -11.3125 C 13.171875 -11.863281 13.617188 -12.601562 13.796875 -13.53125 C 13.835938 -13.769531 13.882812 -14.0625 13.9375 -14.40625 C 14 -14.75 14.003906 -15.109375 13.953125 -15.484375 C 13.929688 -15.847656 13.878906 -16.132812 13.796875 -16.34375 C 13.722656 -16.5625 13.65625 -16.722656 13.59375 -16.828125 C 13.507812 -16.960938 13.257812 -17.09375 12.84375 -17.21875 C 12.644531 -17.289062 12.488281 -17.378906 12.375 -17.484375 C 12.3125 -17.535156 12.222656 -17.570312 12.109375 -17.59375 C 12.003906 -17.613281 11.882812 -17.632812 11.75 -17.65625 C 11.59375 -17.675781 11.453125 -17.691406 11.328125 -17.703125 C 11.210938 -17.710938 11.097656 -17.726562 10.984375 -17.75 Z M 8.34375 -22.796875 C 8.59375 -22.828125 8.894531 -22.847656 9.25 -22.859375 C 9.613281 -22.867188 10.0625 -22.863281 10.59375 -22.84375 C 11.625 -22.8125 12.578125 -22.722656 13.453125 -22.578125 C 14.335938 -22.441406 15.15625 -22.207031 15.90625 -21.875 C 16.65625 -21.550781 17.351562 -21.109375 18 -20.546875 C 18.644531 -19.984375 19.242188 -19.25 19.796875 -18.34375 C 19.972656 -18.039062 20.117188 -17.710938 20.234375 -17.359375 C 20.359375 -17.003906 20.476562 -16.640625 20.59375 -16.265625 C 20.632812 -16.109375 20.660156 -15.894531 20.671875 -15.625 C 20.679688 -15.351562 20.6875 -15.070312 20.6875 -14.78125 C 20.6875 -14.5 20.675781 -14.21875 20.65625 -13.9375 C 20.632812 -13.664062 20.613281 -13.453125 20.59375 -13.296875 C 20.257812 -11.472656 19.46875 -9.898438 18.21875 -8.578125 C 17.6875 -8.003906 17.34375 -7.71875 17.1875 -7.71875 C 17.125 -7.71875 17.070312 -7.6875 17.03125 -7.625 C 16.957031 -7.445312 16.753906 -7.253906 16.421875 -7.046875 C 16.097656 -6.835938 15.726562 -6.644531 15.3125 -6.46875 C 14.894531 -6.289062 14.488281 -6.132812 14.09375 -6 C 13.695312 -5.875 13.398438 -5.785156 13.203125 -5.734375 C 12.828125 -5.648438 12.445312 -5.578125 12.0625 -5.515625 C 11.675781 -5.460938 11.296875 -5.4375 10.921875 -5.4375 C 10.617188 -5.4375 10.191406 -5.492188 9.640625 -5.609375 C 9.171875 -5.722656 8.847656 -5.789062 8.671875 -5.8125 L 8.375 -5.84375 L 8.3125 -5.34375 C 8.289062 -5.164062 8.265625 -4.835938 8.234375 -4.359375 C 8.203125 -3.890625 8.175781 -3.085938 8.15625 -1.953125 C 8.101562 -1.265625 8.050781 -0.660156 8 -0.140625 C 7.945312 0.367188 7.863281 0.8125 7.75 1.1875 C 7.644531 1.5625 7.515625 1.847656 7.359375 2.046875 C 7.296875 2.085938 7.195312 2.132812 7.0625 2.1875 C 6.925781 2.25 6.785156 2.304688 6.640625 2.359375 C 6.503906 2.410156 6.367188 2.457031 6.234375 2.5 C 6.097656 2.550781 6 2.578125 5.9375 2.578125 C 5.800781 2.578125 5.660156 2.617188 5.515625 2.703125 C 5.398438 2.742188 5.269531 2.773438 5.125 2.796875 C 4.988281 2.828125 4.832031 2.84375 4.65625 2.84375 C 4.476562 2.84375 4.3125 2.828125 4.15625 2.796875 C 4 2.773438 3.867188 2.734375 3.765625 2.671875 C 3.546875 2.515625 3.210938 2.25 2.765625 1.875 C 2.367188 1.550781 2.117188 1.300781 2.015625 1.125 C 1.921875 0.945312 1.84375 0.679688 1.78125 0.328125 C 1.757812 0.109375 1.816406 -0.140625 1.953125 -0.421875 C 2.015625 -0.535156 2.054688 -0.632812 2.078125 -0.71875 C 2.097656 -0.8125 2.117188 -0.898438 2.140625 -0.984375 C 2.160156 -1.078125 2.171875 -1.238281 2.171875 -1.46875 C 2.171875 -1.695312 2.1875 -2.007812 2.21875 -2.40625 C 2.34375 -6.019531 2.425781 -8.894531 2.46875 -11.03125 C 2.519531 -13.175781 2.519531 -14.613281 2.46875 -15.34375 C 2.425781 -15.832031 2.40625 -16.125 2.40625 -16.21875 C 2.40625 -16.320312 2.363281 -16.40625 2.28125 -16.46875 C 1.613281 -16.945312 1.171875 -17.441406 0.953125 -17.953125 C 0.648438 -18.546875 0.539062 -19.25 0.625 -20.0625 C 0.644531 -20.351562 0.660156 -20.5625 0.671875 -20.6875 C 0.679688 -20.820312 0.6875 -20.898438 0.6875 -20.921875 C 0.664062 -21.035156 0.796875 -21.148438 1.078125 -21.265625 C 1.367188 -21.390625 1.945312 -21.5625 2.8125 -21.78125 C 3.726562 -22.019531 4.648438 -22.234375 5.578125 -22.421875 C 6.503906 -22.609375 7.425781 -22.734375 8.34375 -22.796875 Z M 8.34375 -22.796875 "/></g></g></g><g fill="#004aad" fill-opacity="1"><g transform="translate(127.584329, 353.274997)"><g><path d="M 4.03125 -16.40625 C 4.507812 -16.40625 4.945312 -16.367188 5.34375 -16.296875 C 5.582031 -16.273438 5.789062 -16.273438 5.96875 -16.296875 C 6.144531 -16.316406 6.351562 -16.273438 6.59375 -16.171875 C 6.769531 -16.078125 6.882812 -16.007812 6.9375 -15.96875 C 7 -15.925781 7.070312 -15.816406 7.15625 -15.640625 C 7.25 -15.359375 7.335938 -15.21875 7.421875 -15.21875 C 7.460938 -15.21875 7.566406 -15.253906 7.734375 -15.328125 C 7.898438 -15.398438 8.160156 -15.503906 8.515625 -15.640625 C 9.148438 -15.898438 9.648438 -16.070312 10.015625 -16.15625 C 10.378906 -16.25 10.847656 -16.296875 11.421875 -16.296875 C 12.035156 -16.296875 12.394531 -16.253906 12.5 -16.171875 C 12.59375 -16.109375 12.726562 -15.800781 12.90625 -15.25 C 13.0625 -14.875 13.101562 -14.332031 13.03125 -13.625 C 13.007812 -13.445312 12.972656 -13.226562 12.921875 -12.96875 C 12.867188 -12.707031 12.789062 -12.445312 12.6875 -12.1875 C 12.59375 -11.9375 12.472656 -11.707031 12.328125 -11.5 C 12.179688 -11.289062 12.019531 -11.144531 11.84375 -11.0625 C 11.582031 -10.945312 11.34375 -11.019531 11.125 -11.28125 L 10.921875 -11.515625 L 10.5 -11.515625 C 10.320312 -11.515625 10.117188 -11.46875 9.890625 -11.375 C 9.671875 -11.289062 9.453125 -11.179688 9.234375 -11.046875 C 9.015625 -10.921875 8.820312 -10.78125 8.65625 -10.625 C 8.5 -10.46875 8.382812 -10.328125 8.3125 -10.203125 C 8.269531 -10.085938 8.21875 -9.992188 8.15625 -9.921875 C 8.101562 -9.859375 8.054688 -9.796875 8.015625 -9.734375 C 7.929688 -9.578125 7.890625 -9.46875 7.890625 -9.40625 C 7.890625 -9.34375 7.867188 -9.265625 7.828125 -9.171875 C 7.734375 -8.972656 7.675781 -8.707031 7.65625 -8.375 C 7.632812 -8.050781 7.601562 -7.375 7.5625 -6.34375 C 7.539062 -4.976562 7.515625 -3.832031 7.484375 -2.90625 C 7.460938 -1.976562 7.441406 -1.265625 7.421875 -0.765625 C 7.398438 0.378906 7.335938 1.050781 7.234375 1.25 C 7.179688 1.34375 7.082031 1.472656 6.9375 1.640625 C 6.800781 1.816406 6.640625 1.992188 6.453125 2.171875 C 6.265625 2.347656 6.082031 2.515625 5.90625 2.671875 C 5.726562 2.828125 5.597656 2.914062 5.515625 2.9375 C 5.335938 3.019531 5.140625 3.0625 4.921875 3.0625 C 4.671875 3.0625 4.410156 2.972656 4.140625 2.796875 C 3.867188 2.628906 3.507812 2.347656 3.0625 1.953125 C 2.78125 1.703125 2.550781 1.492188 2.375 1.328125 C 2.195312 1.171875 2.085938 1.046875 2.046875 0.953125 C 1.804688 0.648438 1.738281 0.273438 1.84375 -0.171875 C 1.863281 -0.273438 1.882812 -0.519531 1.90625 -0.90625 C 1.9375 -1.289062 1.972656 -1.828125 2.015625 -2.515625 C 2.035156 -3.253906 2.046875 -4.097656 2.046875 -5.046875 C 2.046875 -5.992188 2.023438 -7.0625 1.984375 -8.25 C 1.929688 -9.414062 1.882812 -10.410156 1.84375 -11.234375 C 1.800781 -12.054688 1.757812 -12.722656 1.71875 -13.234375 C 1.644531 -13.765625 1.578125 -14.113281 1.515625 -14.28125 C 1.492188 -14.414062 1.34375 -14.601562 1.0625 -14.84375 C 0.75 -15.132812 0.601562 -15.34375 0.625 -15.46875 C 0.644531 -15.601562 0.851562 -15.757812 1.25 -15.9375 C 1.601562 -16.113281 2.050781 -16.234375 2.59375 -16.296875 C 3.132812 -16.367188 3.613281 -16.40625 4.03125 -16.40625 Z M 4.03125 -16.40625 "/></g></g></g><g fill="#004aad" fill-opacity="1"><g transform="translate(141.175514, 353.274997)"><g><path d="M 11.125 -6.234375 C 10.8125 -6.273438 10.503906 -6.269531 10.203125 -6.21875 C 9.910156 -6.164062 9.632812 -6.082031 9.375 -5.96875 C 9.082031 -5.84375 8.757812 -5.664062 8.40625 -5.4375 C 8.0625 -5.21875 7.832031 -5.035156 7.71875 -4.890625 C 7.476562 -4.578125 7.304688 -4.21875 7.203125 -3.8125 C 7.109375 -3.40625 7.117188 -3.054688 7.234375 -2.765625 C 7.296875 -2.546875 7.457031 -2.394531 7.71875 -2.3125 C 8.351562 -2 9.003906 -1.929688 9.671875 -2.109375 C 10.023438 -2.179688 10.363281 -2.28125 10.6875 -2.40625 L 11.1875 -2.609375 L 11.21875 -3.625 C 11.21875 -3.820312 11.21875 -4.070312 11.21875 -4.375 C 11.21875 -4.6875 11.226562 -5.039062 11.25 -5.4375 L 11.3125 -6.203125 Z M 9.3125 -16.46875 C 9.414062 -16.507812 9.910156 -16.507812 10.796875 -16.46875 C 11.628906 -16.46875 12.265625 -16.410156 12.703125 -16.296875 C 13.078125 -16.191406 13.421875 -16.078125 13.734375 -15.953125 C 14.054688 -15.835938 14.316406 -15.710938 14.515625 -15.578125 C 15.796875 -14.742188 16.664062 -13.765625 17.125 -12.640625 C 17.28125 -12.242188 17.390625 -11.78125 17.453125 -11.25 C 17.546875 -10.351562 17.425781 -8.828125 17.09375 -6.671875 C 16.914062 -5.566406 16.789062 -4.679688 16.71875 -4.015625 C 16.65625 -3.359375 16.648438 -2.890625 16.703125 -2.609375 C 16.765625 -2.140625 16.894531 -1.734375 17.09375 -1.390625 C 17.132812 -1.335938 17.171875 -1.285156 17.203125 -1.234375 C 17.242188 -1.179688 17.285156 -1.144531 17.328125 -1.125 C 17.503906 -1.03125 17.75 -1.085938 18.0625 -1.296875 C 18.382812 -1.503906 18.613281 -1.742188 18.75 -2.015625 C 18.8125 -2.148438 18.851562 -2.222656 18.875 -2.234375 C 18.894531 -2.242188 18.925781 -2.210938 18.96875 -2.140625 C 19.019531 -2.054688 19.054688 -2.023438 19.078125 -2.046875 L 19.109375 -1.984375 C 19.085938 -1.910156 19.078125 -1.785156 19.078125 -1.609375 C 19.054688 -1.484375 19.050781 -1.398438 19.0625 -1.359375 C 19.070312 -1.328125 19.117188 -1.3125 19.203125 -1.3125 C 19.316406 -1.3125 19.335938 -1.289062 19.265625 -1.25 C 19.222656 -1.207031 19.171875 -1.140625 19.109375 -1.046875 C 19.046875 -0.960938 18.976562 -0.832031 18.90625 -0.65625 C 18.726562 -0.300781 18.566406 0.015625 18.421875 0.296875 C 18.285156 0.578125 18.128906 0.832031 17.953125 1.0625 C 17.691406 1.382812 17.375 1.648438 17 1.859375 C 16.625 2.066406 16.28125 2.195312 15.96875 2.25 C 15.789062 2.269531 15.675781 2.3125 15.625 2.375 C 15.570312 2.4375 15.523438 2.46875 15.484375 2.46875 C 15.410156 2.46875 15.363281 2.488281 15.34375 2.53125 C 15.320312 2.582031 15.132812 2.617188 14.78125 2.640625 C 14.425781 2.679688 14.140625 2.640625 13.921875 2.515625 C 13.109375 2.109375 12.484375 1.425781 12.046875 0.46875 L 11.8125 0.0625 L 11.21875 0.625 C 10.800781 1.019531 10.4375 1.332031 10.125 1.5625 C 9.820312 1.789062 9.550781 1.960938 9.3125 2.078125 C 8.601562 2.429688 7.820312 2.609375 6.96875 2.609375 C 6.457031 2.628906 6.003906 2.570312 5.609375 2.4375 C 4.953125 2.238281 4.335938 1.9375 3.765625 1.53125 C 3.191406 1.125 2.738281 0.65625 2.40625 0.125 C 2.144531 -0.289062 1.957031 -0.660156 1.84375 -0.984375 C 1.738281 -1.359375 1.675781 -1.878906 1.65625 -2.546875 C 1.625 -3.222656 1.65625 -3.769531 1.75 -4.1875 C 1.988281 -5.21875 2.59375 -6.207031 3.5625 -7.15625 C 3.757812 -7.351562 3.929688 -7.519531 4.078125 -7.65625 C 4.222656 -7.789062 4.363281 -7.90625 4.5 -8 C 4.644531 -8.101562 4.804688 -8.203125 4.984375 -8.296875 C 5.160156 -8.398438 5.390625 -8.515625 5.671875 -8.640625 C 6.398438 -9.015625 7.28125 -9.296875 8.3125 -9.484375 C 9.34375 -9.671875 10.332031 -9.734375 11.28125 -9.671875 L 11.71875 -9.640625 L 11.75 -10.03125 C 11.769531 -10.644531 11.679688 -11.25 11.484375 -11.84375 C 11.367188 -12.082031 11.234375 -12.242188 11.078125 -12.328125 C 10.929688 -12.421875 10.691406 -12.492188 10.359375 -12.546875 C 9.921875 -12.585938 9.398438 -12.539062 8.796875 -12.40625 C 8.191406 -12.269531 7.65625 -12.082031 7.1875 -11.84375 C 7.101562 -11.800781 7.003906 -11.734375 6.890625 -11.640625 C 6.785156 -11.554688 6.664062 -11.460938 6.53125 -11.359375 C 6.25 -11.085938 6.109375 -10.941406 6.109375 -10.921875 C 6.109375 -10.878906 6.023438 -10.785156 5.859375 -10.640625 C 5.691406 -10.492188 5.539062 -10.367188 5.40625 -10.265625 C 4.988281 -9.992188 4.628906 -9.914062 4.328125 -10.03125 C 3.929688 -10.1875 3.625 -10.492188 3.40625 -10.953125 C 3.351562 -11.046875 3.300781 -11.128906 3.25 -11.203125 C 3.195312 -11.273438 3.148438 -11.335938 3.109375 -11.390625 C 2.992188 -11.515625 2.914062 -11.710938 2.875 -11.984375 C 2.832031 -12.265625 2.785156 -12.460938 2.734375 -12.578125 C 2.609375 -12.816406 2.65625 -13.15625 2.875 -13.59375 C 3.113281 -14.101562 3.398438 -14.445312 3.734375 -14.625 C 3.816406 -14.664062 3.894531 -14.707031 3.96875 -14.75 C 4.050781 -14.789062 4.125 -14.847656 4.1875 -14.921875 C 4.320312 -15.023438 4.539062 -15.15625 4.84375 -15.3125 C 5.15625 -15.46875 5.53125 -15.625 5.96875 -15.78125 C 6.757812 -16.019531 7.648438 -16.21875 8.640625 -16.375 C 8.753906 -16.394531 8.882812 -16.414062 9.03125 -16.4375 C 9.1875 -16.457031 9.28125 -16.46875 9.3125 -16.46875 Z M 9.3125 -16.46875 "/></g></g></g><g fill="#004aad" fill-opacity="1"><g transform="translate(161.298381, 353.274997)"><g><path d="M 11.578125 -11.484375 C 11.429688 -11.617188 11.234375 -11.6875 10.984375 -11.6875 C 10.785156 -11.6875 10.597656 -11.640625 10.421875 -11.546875 C 9.234375 -10.890625 8.375 -10.078125 7.84375 -9.109375 C 7.320312 -8.140625 7.0625 -6.992188 7.0625 -5.671875 C 7.0625 -5.078125 7.101562 -4.671875 7.1875 -4.453125 C 7.414062 -4.015625 7.710938 -3.71875 8.078125 -3.5625 C 8.453125 -3.40625 8.875 -3.328125 9.34375 -3.328125 C 9.738281 -3.328125 10.140625 -3.414062 10.546875 -3.59375 C 10.953125 -3.769531 11.316406 -4.003906 11.640625 -4.296875 C 11.972656 -4.597656 12.265625 -4.929688 12.515625 -5.296875 C 12.773438 -5.660156 12.957031 -6.03125 13.0625 -6.40625 C 13.113281 -6.625 13.15625 -6.84375 13.1875 -7.0625 C 13.21875 -7.28125 13.222656 -7.507812 13.203125 -7.75 C 13.179688 -7.945312 13.15625 -8.175781 13.125 -8.4375 C 13.101562 -8.707031 13.070312 -9 13.03125 -9.3125 L 12.90625 -10.203125 L 12.40625 -10.765625 C 12.226562 -10.929688 12.070312 -11.078125 11.9375 -11.203125 C 11.8125 -11.328125 11.691406 -11.421875 11.578125 -11.484375 Z M 15.4375 -16.59375 C 16.0625 -16.613281 16.445312 -16.613281 16.59375 -16.59375 C 17.476562 -16.488281 18 -16.425781 18.15625 -16.40625 C 18.414062 -16.3125 18.632812 -16.101562 18.8125 -15.78125 C 19.03125 -15.351562 19.097656 -15.03125 19.015625 -14.8125 C 18.984375 -14.769531 18.96875 -14.601562 18.96875 -14.3125 C 18.96875 -14.03125 18.957031 -13.640625 18.9375 -13.140625 L 18.75 -7.484375 C 18.695312 -6.191406 18.644531 -4.898438 18.59375 -3.609375 C 18.539062 -2.328125 18.476562 -1.035156 18.40625 0.265625 C 18.382812 0.921875 18.351562 1.625 18.3125 2.375 C 18.269531 3.125 18.179688 3.867188 18.046875 4.609375 C 17.921875 5.359375 17.726562 6.085938 17.46875 6.796875 C 17.21875 7.503906 16.882812 8.117188 16.46875 8.640625 C 16.050781 9.191406 15.582031 9.625 15.0625 9.9375 C 14.539062 10.257812 14 10.503906 13.4375 10.671875 C 12.882812 10.835938 12.300781 10.941406 11.6875 10.984375 C 11.070312 11.035156 10.441406 11.0625 9.796875 11.0625 C 9.554688 11.0625 9.335938 11.050781 9.140625 11.03125 C 8.941406 11.019531 8.765625 11.003906 8.609375 10.984375 C 7.890625 10.804688 7.257812 10.539062 6.71875 10.1875 C 6.175781 9.84375 5.640625 9.40625 5.109375 8.875 C 4.585938 8.394531 4.328125 8.085938 4.328125 7.953125 C 4.328125 7.835938 4.289062 7.769531 4.21875 7.75 C 4.15625 7.726562 4.144531 7.695312 4.1875 7.65625 C 4.226562 7.632812 4.1875 7.554688 4.0625 7.421875 C 3.925781 7.296875 3.859375 7.195312 3.859375 7.125 C 3.859375 7.0625 3.804688 6.863281 3.703125 6.53125 C 3.671875 6.488281 3.632812 6.410156 3.59375 6.296875 C 3.550781 6.191406 3.507812 6.078125 3.46875 5.953125 C 3.425781 5.835938 3.378906 5.722656 3.328125 5.609375 C 3.285156 5.492188 3.253906 5.40625 3.234375 5.34375 C 3.035156 4.863281 2.96875 4.625 3.03125 4.625 C 3.050781 4.625 3.078125 4.632812 3.109375 4.65625 C 3.210938 4.757812 3.300781 4.785156 3.375 4.734375 C 3.457031 4.679688 3.453125 4.566406 3.359375 4.390625 C 3.253906 4.128906 3.320312 4.050781 3.5625 4.15625 C 3.65625 4.195312 3.710938 4.207031 3.734375 4.1875 C 3.753906 4.164062 3.742188 4.125 3.703125 4.0625 C 3.609375 3.925781 3.59375 3.867188 3.65625 3.890625 C 4.363281 4.597656 5.25 5.144531 6.3125 5.53125 C 7.382812 5.914062 8.414062 6.109375 9.40625 6.109375 C 10.113281 6.109375 10.671875 6.015625 11.078125 5.828125 C 11.484375 5.640625 11.804688 5.367188 12.046875 5.015625 C 12.285156 4.660156 12.457031 4.234375 12.5625 3.734375 C 12.675781 3.242188 12.769531 2.703125 12.84375 2.109375 C 12.882812 1.847656 12.914062 1.644531 12.9375 1.5 C 12.957031 1.351562 12.972656 1.21875 12.984375 1.09375 C 12.992188 0.976562 13.003906 0.847656 13.015625 0.703125 C 13.023438 0.566406 13.03125 0.375 13.03125 0.125 L 13.03125 -0.296875 L 12.703125 -0.0625 C 12.640625 0 12.34375 0.195312 11.8125 0.53125 C 11.613281 0.65625 11.453125 0.757812 11.328125 0.84375 C 11.210938 0.9375 11.125 1.007812 11.0625 1.0625 C 10.550781 1.425781 9.96875 1.703125 9.3125 1.890625 C 8.664062 2.078125 8.023438 2.171875 7.390625 2.171875 C 6.441406 2.171875 5.613281 2.023438 4.90625 1.734375 C 4.207031 1.453125 3.609375 1.050781 3.109375 0.53125 C 2.617188 0.0195312 2.21875 -0.585938 1.90625 -1.296875 C 1.601562 -2.015625 1.363281 -2.800781 1.1875 -3.65625 C 1.007812 -4.800781 0.953125 -5.945312 1.015625 -7.09375 C 1.128906 -8.457031 1.429688 -9.6875 1.921875 -10.78125 C 2.421875 -11.882812 3.144531 -12.929688 4.09375 -13.921875 C 4.394531 -14.253906 4.6875 -14.554688 4.96875 -14.828125 C 5.257812 -15.109375 5.613281 -15.347656 6.03125 -15.546875 C 6.738281 -15.984375 7.421875 -16.238281 8.078125 -16.3125 C 8.742188 -16.394531 9.472656 -16.4375 10.265625 -16.4375 C 11.078125 -16.4375 11.757812 -16.367188 12.3125 -16.234375 L 12.703125 -16.078125 L 13.625 -16.328125 C 13.9375 -16.421875 14.238281 -16.484375 14.53125 -16.515625 C 14.832031 -16.546875 15.132812 -16.570312 15.4375 -16.59375 Z M 15.4375 -16.59375 "/></g></g></g><g fill="#004aad" fill-opacity="1"><g transform="translate(181.45424, 353.274997)"><g><path d="M 5.109375 2.609375 C 4.710938 2.609375 4.320312 2.5625 3.9375 2.46875 C 3.550781 2.382812 3.21875 2.242188 2.9375 2.046875 C 2.65625 1.847656 2.425781 1.578125 2.25 1.234375 C 2.070312 0.890625 1.984375 0.457031 1.984375 -0.0625 C 1.984375 -0.570312 2 -1.070312 2.03125 -1.5625 C 2.0625 -2.0625 2.085938 -2.5625 2.109375 -3.0625 C 2.148438 -4.445312 2.191406 -5.820312 2.234375 -7.1875 C 2.285156 -8.550781 2.3125 -9.941406 2.3125 -11.359375 C 2.3125 -11.835938 2.257812 -12.21875 2.15625 -12.5 C 2.0625 -12.789062 1.957031 -13.050781 1.84375 -13.28125 C 1.738281 -13.507812 1.660156 -13.757812 1.609375 -14.03125 C 1.566406 -14.3125 1.59375 -14.695312 1.6875 -15.1875 C 1.75 -15.488281 2.035156 -15.710938 2.546875 -15.859375 C 3.066406 -16.003906 3.660156 -16.175781 4.328125 -16.375 C 4.429688 -16.414062 4.539062 -16.445312 4.65625 -16.46875 C 4.78125 -16.488281 4.921875 -16.5 5.078125 -16.5 C 5.253906 -16.5 5.519531 -16.457031 5.875 -16.375 C 6.226562 -16.300781 6.566406 -16.234375 6.890625 -16.171875 C 6.941406 -16.128906 6.992188 -16.09375 7.046875 -16.0625 C 7.097656 -16.039062 7.144531 -16.007812 7.1875 -15.96875 C 7.363281 -15.789062 7.5 -15.59375 7.59375 -15.375 C 7.632812 -15.25 7.632812 -15.097656 7.59375 -14.921875 C 7.59375 -14.847656 7.585938 -14.695312 7.578125 -14.46875 C 7.566406 -14.238281 7.5625 -14.09375 7.5625 -14.03125 C 7.5625 -13.851562 7.570312 -13.707031 7.59375 -13.59375 C 7.769531 -13.90625 8.015625 -14.234375 8.328125 -14.578125 C 8.648438 -14.929688 9 -15.253906 9.375 -15.546875 C 9.75 -15.847656 10.132812 -16.097656 10.53125 -16.296875 C 10.925781 -16.492188 11.300781 -16.59375 11.65625 -16.59375 C 12.445312 -16.59375 13.113281 -16.460938 13.65625 -16.203125 C 14.207031 -15.941406 14.691406 -15.582031 15.109375 -15.125 C 15.523438 -14.675781 15.898438 -14.148438 16.234375 -13.546875 C 16.566406 -12.941406 16.882812 -12.3125 17.1875 -11.65625 C 17.4375 -12.332031 17.796875 -12.972656 18.265625 -13.578125 C 18.734375 -14.179688 19.28125 -14.703125 19.90625 -15.140625 C 20.539062 -15.585938 21.210938 -15.941406 21.921875 -16.203125 C 22.640625 -16.460938 23.34375 -16.59375 24.03125 -16.59375 C 25.019531 -16.59375 25.832031 -16.304688 26.46875 -15.734375 C 27.101562 -15.171875 27.578125 -14.414062 27.890625 -13.46875 C 28.035156 -13.050781 28.132812 -12.550781 28.1875 -11.96875 C 28.25 -11.382812 28.289062 -10.800781 28.3125 -10.21875 C 28.332031 -9.632812 28.335938 -9.085938 28.328125 -8.578125 C 28.316406 -8.078125 28.3125 -7.671875 28.3125 -7.359375 C 28.3125 -7.160156 28.320312 -6.695312 28.34375 -5.96875 C 28.363281 -5.25 28.378906 -4.46875 28.390625 -3.625 C 28.398438 -2.789062 28.40625 -2.015625 28.40625 -1.296875 C 28.40625 -0.585938 28.394531 -0.15625 28.375 0 C 28.332031 0.3125 28.3125 0.617188 28.3125 0.921875 C 28.3125 1.234375 28.3125 1.429688 28.3125 1.515625 C 28.269531 2.085938 28.070312 2.429688 27.71875 2.546875 C 27.363281 2.671875 26.898438 2.734375 26.328125 2.734375 C 25.953125 2.734375 25.601562 2.71875 25.28125 2.6875 C 24.96875 2.65625 24.679688 2.597656 24.421875 2.515625 C 24.398438 2.515625 24.382812 2.503906 24.375 2.484375 C 24.363281 2.472656 24.347656 2.46875 24.328125 2.46875 C 24.097656 2.40625 23.910156 2.304688 23.765625 2.171875 C 23.742188 2.171875 23.6875 2.148438 23.59375 2.109375 C 23.4375 2.023438 23.3125 1.957031 23.21875 1.90625 C 23.132812 1.863281 23.082031 1.832031 23.0625 1.8125 C 23.039062 1.789062 22.941406 1.660156 22.765625 1.421875 C 22.660156 1.328125 22.578125 1.234375 22.515625 1.140625 C 22.460938 1.054688 22.414062 0.960938 22.375 0.859375 C 22.238281 0.503906 21.929688 0.03125 21.453125 -0.5625 C 21.316406 -0.738281 21.203125 -0.882812 21.109375 -1 C 21.023438 -1.125 20.972656 -1.207031 20.953125 -1.25 L 20.890625 -1.421875 L 20.953125 -1.390625 C 21.410156 -1.140625 21.707031 -1.039062 21.84375 -1.09375 L 21.90625 -1.09375 C 21.925781 -1.09375 21.960938 -1.066406 22.015625 -1.015625 C 22.117188 -0.847656 22.269531 -0.828125 22.46875 -0.953125 C 22.46875 -1.304688 22.484375 -1.703125 22.515625 -2.140625 C 22.554688 -2.585938 22.578125 -3.050781 22.578125 -3.53125 C 22.578125 -4.300781 22.609375 -5.0625 22.671875 -5.8125 C 22.734375 -6.5625 22.765625 -7.316406 22.765625 -8.078125 C 22.765625 -8.171875 22.765625 -8.359375 22.765625 -8.640625 C 22.765625 -8.929688 22.75 -9.226562 22.71875 -9.53125 C 22.6875 -9.84375 22.640625 -10.117188 22.578125 -10.359375 C 22.523438 -10.597656 22.4375 -10.71875 22.3125 -10.71875 C 21.5 -10.71875 20.832031 -10.414062 20.3125 -9.8125 C 19.789062 -9.207031 19.375 -8.476562 19.0625 -7.625 C 18.757812 -6.769531 18.546875 -5.867188 18.421875 -4.921875 C 18.304688 -3.972656 18.25 -3.171875 18.25 -2.515625 C 18.25 -2.378906 18.25 -2.160156 18.25 -1.859375 C 18.25 -1.566406 18.25 -1.265625 18.25 -0.953125 C 18.25 -0.648438 18.242188 -0.367188 18.234375 -0.109375 C 18.222656 0.140625 18.21875 0.296875 18.21875 0.359375 L 18.21875 1.125 C 18.21875 1.207031 18.222656 1.296875 18.234375 1.390625 C 18.242188 1.492188 18.238281 1.582031 18.21875 1.65625 C 18.175781 2.03125 18.023438 2.332031 17.765625 2.5625 C 17.515625 2.789062 17.070312 2.90625 16.4375 2.90625 C 16.019531 2.90625 15.5625 2.867188 15.0625 2.796875 C 14.570312 2.734375 14.109375 2.601562 13.671875 2.40625 C 13.242188 2.207031 12.882812 1.929688 12.59375 1.578125 C 12.3125 1.234375 12.171875 0.773438 12.171875 0.203125 C 12.171875 -0.878906 12.207031 -1.953125 12.28125 -3.015625 C 12.363281 -4.085938 12.394531 -5.160156 12.375 -6.234375 C 12.332031 -7.816406 12.207031 -8.972656 12 -9.703125 C 11.789062 -10.429688 11.519531 -10.796875 11.1875 -10.796875 C 10.851562 -10.796875 10.523438 -10.734375 10.203125 -10.609375 C 9.890625 -10.484375 9.59375 -10.273438 9.3125 -9.984375 C 9.039062 -9.703125 8.816406 -9.332031 8.640625 -8.875 C 8.460938 -8.414062 8.351562 -7.84375 8.3125 -7.15625 C 8.3125 -6.894531 8.304688 -6.515625 8.296875 -6.015625 C 8.285156 -5.523438 8.28125 -4.972656 8.28125 -4.359375 C 8.28125 -3.742188 8.28125 -3.09375 8.28125 -2.40625 C 8.28125 -1.726562 8.289062 -1.082031 8.3125 -0.46875 C 8.3125 -0.414062 8.3125 -0.304688 8.3125 -0.140625 C 8.3125 0.015625 8.3125 0.1875 8.3125 0.375 C 8.3125 0.5625 8.320312 0.734375 8.34375 0.890625 C 8.363281 1.046875 8.390625 1.125 8.421875 1.125 C 7.929688 1.5625 7.453125 1.914062 6.984375 2.1875 C 6.523438 2.46875 5.898438 2.609375 5.109375 2.609375 Z M 5.109375 2.609375 "/></g></g></g><g fill="#004aad" fill-opacity="1"><g transform="translate(211.539577, 353.274997)"><g><path d="M 3.59375 -16.4375 C 3.769531 -16.476562 4.125 -16.5 4.65625 -16.5 C 4.875 -16.5 5.046875 -16.5 5.171875 -16.5 C 5.304688 -16.5 5.410156 -16.488281 5.484375 -16.46875 C 5.566406 -16.445312 5.640625 -16.414062 5.703125 -16.375 C 5.773438 -16.34375 5.863281 -16.296875 5.96875 -16.234375 C 6.757812 -15.796875 7.203125 -15.171875 7.296875 -14.359375 C 7.316406 -14.242188 7.296875 -13.472656 7.234375 -12.046875 C 7.179688 -11.390625 7.144531 -10.675781 7.125 -9.90625 C 7.101562 -9.132812 7.082031 -8.304688 7.0625 -7.421875 C 7.039062 -6.566406 7.019531 -5.894531 7 -5.40625 C 6.976562 -4.925781 6.957031 -4.617188 6.9375 -4.484375 C 6.820312 -3.984375 6.84375 -3.734375 7 -3.734375 C 7.0625 -3.734375 7.097656 -3.703125 7.109375 -3.640625 C 7.117188 -3.585938 7.113281 -3.375 7.09375 -3 C 7.050781 -2.5 7.015625 -2.007812 6.984375 -1.53125 C 6.953125 -1.0625 6.890625 -0.570312 6.796875 -0.0625 C 6.617188 0.6875 6.476562 1.179688 6.375 1.421875 C 6.300781 1.597656 6.179688 1.785156 6.015625 1.984375 C 5.859375 2.179688 5.742188 2.28125 5.671875 2.28125 C 5.628906 2.28125 5.539062 2.332031 5.40625 2.4375 C 5.257812 2.570312 5.03125 2.695312 4.71875 2.8125 L 4.25 3 L 3.859375 2.765625 C 3.378906 2.503906 2.96875 2.160156 2.625 1.734375 C 2.28125 1.304688 2.039062 0.828125 1.90625 0.296875 L 1.75 -0.265625 L 1.75 -2.40625 C 1.75 -3.769531 1.78125 -5.421875 1.84375 -7.359375 C 1.976562 -11.015625 2 -13.125 1.90625 -13.6875 C 1.800781 -14.238281 1.628906 -14.59375 1.390625 -14.75 C 1.171875 -14.925781 1.191406 -15.144531 1.453125 -15.40625 C 1.609375 -15.582031 1.78125 -15.710938 1.96875 -15.796875 C 2.15625 -15.890625 2.359375 -15.96875 2.578125 -16.03125 C 2.835938 -16.082031 3.035156 -16.148438 3.171875 -16.234375 C 3.253906 -16.296875 3.328125 -16.335938 3.390625 -16.359375 C 3.460938 -16.390625 3.53125 -16.414062 3.59375 -16.4375 Z M 4.515625 -23.5625 C 5.421875 -23.5625 6.203125 -23.1875 6.859375 -22.4375 C 6.972656 -22.28125 7.078125 -22.132812 7.171875 -22 C 7.273438 -21.875 7.367188 -21.734375 7.453125 -21.578125 C 7.609375 -21.296875 7.6875 -20.96875 7.6875 -20.59375 C 7.6875 -20.175781 7.582031 -19.804688 7.375 -19.484375 C 7.164062 -19.171875 6.898438 -18.910156 6.578125 -18.703125 C 6.265625 -18.503906 5.914062 -18.351562 5.53125 -18.25 C 5.144531 -18.15625 4.765625 -18.109375 4.390625 -18.109375 C 3.953125 -18.109375 3.535156 -18.175781 3.140625 -18.3125 C 2.671875 -18.488281 2.382812 -18.625 2.28125 -18.71875 C 2.125 -18.84375 1.992188 -19.023438 1.890625 -19.265625 C 1.796875 -19.515625 1.710938 -19.78125 1.640625 -20.0625 C 1.578125 -20.351562 1.53125 -20.632812 1.5 -20.90625 C 1.46875 -21.175781 1.453125 -21.410156 1.453125 -21.609375 C 1.410156 -22.003906 1.628906 -22.390625 2.109375 -22.765625 C 2.484375 -23.078125 2.851562 -23.285156 3.21875 -23.390625 C 3.582031 -23.503906 4.015625 -23.5625 4.515625 -23.5625 Z M 4.515625 -23.5625 "/></g></g></g><g fill="#004aad" fill-opacity="1"><g transform="translate(220.644347, 353.274997)"><g><path d="M 6.296875 -22.203125 C 6.410156 -22.253906 6.753906 -22.28125 7.328125 -22.28125 C 7.609375 -22.28125 7.929688 -22.28125 8.296875 -22.28125 C 8.660156 -22.28125 9.0625 -22.253906 9.5 -22.203125 C 10.070312 -22.179688 10.425781 -22.09375 10.5625 -21.9375 C 10.625 -21.875 10.8125 -21.789062 11.125 -21.6875 C 11.363281 -21.613281 11.5625 -21.46875 11.71875 -21.25 C 12.039062 -20.675781 12.09375 -20.082031 11.875 -19.46875 C 11.851562 -19.382812 11.835938 -19.300781 11.828125 -19.21875 C 11.816406 -19.144531 11.800781 -19.050781 11.78125 -18.9375 C 11.757812 -18.875 11.722656 -18.726562 11.671875 -18.5 C 11.628906 -18.269531 11.582031 -18.023438 11.53125 -17.765625 C 11.476562 -17.515625 11.425781 -17.28125 11.375 -17.0625 C 11.332031 -16.84375 11.3125 -16.710938 11.3125 -16.671875 C 11.34375 -16.640625 11.90625 -16.625 13 -16.625 C 13.550781 -16.625 13.992188 -16.628906 14.328125 -16.640625 C 14.671875 -16.660156 14.910156 -16.679688 15.046875 -16.703125 C 15.753906 -16.828125 16.207031 -16.691406 16.40625 -16.296875 C 16.644531 -15.816406 16.816406 -15.421875 16.921875 -15.109375 C 17.035156 -14.804688 17.09375 -14.578125 17.09375 -14.421875 C 17.09375 -14.265625 17.125 -14.097656 17.1875 -13.921875 C 17.257812 -13.742188 17.265625 -13.585938 17.203125 -13.453125 C 17.148438 -13.328125 17.003906 -13.144531 16.765625 -12.90625 C 16.503906 -12.632812 16.238281 -12.457031 15.96875 -12.375 C 15.445312 -12.15625 15.109375 -12.046875 14.953125 -12.046875 C 14.835938 -12.046875 14.789062 -12.019531 14.8125 -11.96875 C 14.832031 -11.925781 14.789062 -11.894531 14.6875 -11.875 C 14.644531 -11.851562 14.59375 -11.84375 14.53125 -11.84375 C 14.476562 -11.84375 14.410156 -11.832031 14.328125 -11.8125 C 14.210938 -11.8125 13.988281 -11.789062 13.65625 -11.75 C 13.332031 -11.707031 12.992188 -11.648438 12.640625 -11.578125 C 12.285156 -11.515625 11.957031 -11.441406 11.65625 -11.359375 C 11.363281 -11.285156 11.1875 -11.207031 11.125 -11.125 C 11.007812 -10.988281 10.925781 -10.640625 10.875 -10.078125 C 10.820312 -9.515625 10.757812 -8.738281 10.6875 -7.75 C 10.5625 -5.769531 10.53125 -4.242188 10.59375 -3.171875 L 10.65625 -2.25 L 10.890625 -2.21875 C 10.910156 -2.21875 10.984375 -2.203125 11.109375 -2.171875 C 11.242188 -2.148438 11.347656 -2.128906 11.421875 -2.109375 C 11.523438 -2.085938 11.675781 -2.09375 11.875 -2.125 C 12.070312 -2.15625 12.304688 -2.195312 12.578125 -2.25 C 12.835938 -2.3125 13.066406 -2.367188 13.265625 -2.421875 C 13.460938 -2.484375 13.617188 -2.554688 13.734375 -2.640625 C 14.347656 -2.992188 14.707031 -3.367188 14.8125 -3.765625 C 14.882812 -3.921875 14.960938 -3.953125 15.046875 -3.859375 C 15.085938 -3.796875 15.164062 -3.796875 15.28125 -3.859375 L 15.40625 -3.953125 L 15.3125 -3.328125 C 15.269531 -3.148438 15.253906 -2.992188 15.265625 -2.859375 C 15.273438 -2.734375 15.269531 -2.648438 15.25 -2.609375 C 15.25 -2.546875 15.269531 -2.488281 15.3125 -2.4375 C 15.332031 -2.4375 15.363281 -2.4375 15.40625 -2.4375 C 15.40625 -2.414062 15.390625 -2.351562 15.359375 -2.25 C 15.328125 -2.15625 15.289062 -2.046875 15.25 -1.921875 C 15.207031 -1.804688 15.160156 -1.691406 15.109375 -1.578125 C 15.066406 -1.472656 15.046875 -1.398438 15.046875 -1.359375 C 14.765625 -0.765625 14.625 -0.410156 14.625 -0.296875 C 14.625 -0.234375 14.554688 -0.113281 14.421875 0.0625 C 14.242188 0.238281 14.175781 0.359375 14.21875 0.421875 C 14.238281 0.535156 14.03125 0.847656 13.59375 1.359375 C 13.113281 1.816406 12.519531 2.195312 11.8125 2.5 C 11.113281 2.8125 10.441406 2.96875 9.796875 2.96875 C 9.578125 2.96875 9.390625 2.925781 9.234375 2.84375 C 9.109375 2.726562 8.898438 2.660156 8.609375 2.640625 C 8.253906 2.578125 7.914062 2.445312 7.59375 2.25 C 7.28125 2.050781 6.992188 1.804688 6.734375 1.515625 C 6.472656 1.234375 6.238281 0.925781 6.03125 0.59375 C 5.832031 0.257812 5.691406 -0.0664062 5.609375 -0.390625 C 5.390625 -1.054688 5.25 -2.34375 5.1875 -4.25 C 5.15625 -4.625 5.144531 -5.125 5.15625 -5.75 C 5.175781 -6.382812 5.195312 -7.128906 5.21875 -7.984375 L 5.28125 -10.421875 L 5.109375 -10.390625 C 5.046875 -10.367188 4.648438 -10.359375 3.921875 -10.359375 C 3.398438 -10.359375 3.007812 -10.382812 2.75 -10.4375 C 2.5 -10.5 2.234375 -10.617188 1.953125 -10.796875 C 1.796875 -10.898438 1.625 -11.082031 1.4375 -11.34375 C 1.25 -11.613281 1.109375 -11.867188 1.015625 -12.109375 C 0.796875 -12.660156 0.664062 -13.34375 0.625 -14.15625 C 0.582031 -14.53125 0.628906 -14.828125 0.765625 -15.046875 C 0.847656 -15.242188 1.019531 -15.472656 1.28125 -15.734375 C 1.53125 -15.984375 1.65625 -16.15625 1.65625 -16.25 C 1.65625 -16.351562 1.71875 -16.378906 1.84375 -16.328125 C 2.019531 -16.285156 2.144531 -16.234375 2.21875 -16.171875 C 2.382812 -16.015625 2.664062 -15.910156 3.0625 -15.859375 C 3.457031 -15.804688 3.78125 -15.78125 4.03125 -15.78125 C 4.09375 -15.78125 4.203125 -15.785156 4.359375 -15.796875 C 4.515625 -15.804688 4.671875 -15.816406 4.828125 -15.828125 C 4.992188 -15.835938 5.144531 -15.851562 5.28125 -15.875 C 5.414062 -15.894531 5.492188 -15.914062 5.515625 -15.9375 C 5.554688 -15.976562 5.546875 -16.421875 5.484375 -17.265625 C 5.484375 -17.367188 5.457031 -17.566406 5.40625 -17.859375 C 5.363281 -18.160156 5.320312 -18.476562 5.28125 -18.8125 C 5.238281 -19.144531 5.179688 -19.453125 5.109375 -19.734375 C 5.046875 -20.015625 4.992188 -20.203125 4.953125 -20.296875 C 4.878906 -20.359375 4.832031 -20.421875 4.8125 -20.484375 C 4.789062 -20.554688 4.769531 -20.625 4.75 -20.6875 C 4.6875 -20.84375 4.6875 -20.988281 4.75 -21.125 C 4.8125 -21.269531 4.898438 -21.367188 5.015625 -21.421875 C 5.128906 -21.460938 5.238281 -21.535156 5.34375 -21.640625 C 5.539062 -21.910156 5.859375 -22.097656 6.296875 -22.203125 Z M 6.296875 -22.203125 "/></g></g></g><g fill="#004aad" fill-opacity="1"><g transform="translate(238.491018, 353.274997)"><g><path d="M 3.59375 -16.4375 C 3.769531 -16.476562 4.125 -16.5 4.65625 -16.5 C 4.875 -16.5 5.046875 -16.5 5.171875 -16.5 C 5.304688 -16.5 5.410156 -16.488281 5.484375 -16.46875 C 5.566406 -16.445312 5.640625 -16.414062 5.703125 -16.375 C 5.773438 -16.34375 5.863281 -16.296875 5.96875 -16.234375 C 6.757812 -15.796875 7.203125 -15.171875 7.296875 -14.359375 C 7.316406 -14.242188 7.296875 -13.472656 7.234375 -12.046875 C 7.179688 -11.390625 7.144531 -10.675781 7.125 -9.90625 C 7.101562 -9.132812 7.082031 -8.304688 7.0625 -7.421875 C 7.039062 -6.566406 7.019531 -5.894531 7 -5.40625 C 6.976562 -4.925781 6.957031 -4.617188 6.9375 -4.484375 C 6.820312 -3.984375 6.84375 -3.734375 7 -3.734375 C 7.0625 -3.734375 7.097656 -3.703125 7.109375 -3.640625 C 7.117188 -3.585938 7.113281 -3.375 7.09375 -3 C 7.050781 -2.5 7.015625 -2.007812 6.984375 -1.53125 C 6.953125 -1.0625 6.890625 -0.570312 6.796875 -0.0625 C 6.617188 0.6875 6.476562 1.179688 6.375 1.421875 C 6.300781 1.597656 6.179688 1.785156 6.015625 1.984375 C 5.859375 2.179688 5.742188 2.28125 5.671875 2.28125 C 5.628906 2.28125 5.539062 2.332031 5.40625 2.4375 C 5.257812 2.570312 5.03125 2.695312 4.71875 2.8125 L 4.25 3 L 3.859375 2.765625 C 3.378906 2.503906 2.96875 2.160156 2.625 1.734375 C 2.28125 1.304688 2.039062 0.828125 1.90625 0.296875 L 1.75 -0.265625 L 1.75 -2.40625 C 1.75 -3.769531 1.78125 -5.421875 1.84375 -7.359375 C 1.976562 -11.015625 2 -13.125 1.90625 -13.6875 C 1.800781 -14.238281 1.628906 -14.59375 1.390625 -14.75 C 1.171875 -14.925781 1.191406 -15.144531 1.453125 -15.40625 C 1.609375 -15.582031 1.78125 -15.710938 1.96875 -15.796875 C 2.15625 -15.890625 2.359375 -15.96875 2.578125 -16.03125 C 2.835938 -16.082031 3.035156 -16.148438 3.171875 -16.234375 C 3.253906 -16.296875 3.328125 -16.335938 3.390625 -16.359375 C 3.460938 -16.390625 3.53125 -16.414062 3.59375 -16.4375 Z M 4.515625 -23.5625 C 5.421875 -23.5625 6.203125 -23.1875 6.859375 -22.4375 C 6.972656 -22.28125 7.078125 -22.132812 7.171875 -22 C 7.273438 -21.875 7.367188 -21.734375 7.453125 -21.578125 C 7.609375 -21.296875 7.6875 -20.96875 7.6875 -20.59375 C 7.6875 -20.175781 7.582031 -19.804688 7.375 -19.484375 C 7.164062 -19.171875 6.898438 -18.910156 6.578125 -18.703125 C 6.265625 -18.503906 5.914062 -18.351562 5.53125 -18.25 C 5.144531 -18.15625 4.765625 -18.109375 4.390625 -18.109375 C 3.953125 -18.109375 3.535156 -18.175781 3.140625 -18.3125 C 2.671875 -18.488281 2.382812 -18.625 2.28125 -18.71875 C 2.125 -18.84375 1.992188 -19.023438 1.890625 -19.265625 C 1.796875 -19.515625 1.710938 -19.78125 1.640625 -20.0625 C 1.578125 -20.351562 1.53125 -20.632812 1.5 -20.90625 C 1.46875 -21.175781 1.453125 -21.410156 1.453125 -21.609375 C 1.410156 -22.003906 1.628906 -22.390625 2.109375 -22.765625 C 2.484375 -23.078125 2.851562 -23.285156 3.21875 -23.390625 C 3.582031 -23.503906 4.015625 -23.5625 4.515625 -23.5625 Z M 4.515625 -23.5625 "/></g></g></g><g fill="#004aad" fill-opacity="1"><g transform="translate(247.595788, 353.274997)"><g><path d="M 1.6875 -3.109375 C 1.925781 -2.796875 2.15625 -2.550781 2.375 -2.375 C 2.59375 -2.195312 2.859375 -2.066406 3.171875 -1.984375 C 3.273438 -1.929688 3.378906 -1.929688 3.484375 -1.984375 C 3.597656 -2.046875 3.703125 -2.097656 3.796875 -2.140625 C 3.898438 -2.191406 4.109375 -2.378906 4.421875 -2.703125 C 4.734375 -3.035156 5.0625 -3.40625 5.40625 -3.8125 C 5.757812 -4.21875 6.09375 -4.609375 6.40625 -4.984375 C 6.726562 -5.359375 6.9375 -5.609375 7.03125 -5.734375 C 7.445312 -6.285156 7.773438 -6.722656 8.015625 -7.046875 C 8.253906 -7.367188 8.363281 -7.5625 8.34375 -7.625 C 8.320312 -7.664062 8.257812 -7.773438 8.15625 -7.953125 C 8.0625 -8.128906 7.835938 -8.40625 7.484375 -8.78125 C 7.160156 -9.101562 6.816406 -9.472656 6.453125 -9.890625 C 6.085938 -10.316406 5.828125 -10.609375 5.671875 -10.765625 C 5.296875 -11.085938 4.953125 -11.332031 4.640625 -11.5 C 4.335938 -11.664062 3.9375 -11.75 3.4375 -11.75 C 2.707031 -11.75 1.914062 -11.460938 1.0625 -10.890625 C 1.101562 -10.953125 1.101562 -10.992188 1.0625 -11.015625 C 1.03125 -11.046875 1 -11.078125 0.96875 -11.109375 C 0.9375 -11.140625 0.898438 -11.191406 0.859375 -11.265625 C 0.816406 -11.347656 0.796875 -11.476562 0.796875 -11.65625 C 0.796875 -12.15625 0.90625 -12.703125 1.125 -13.296875 C 1.34375 -13.890625 1.640625 -14.375 2.015625 -14.75 C 2.410156 -15.0625 2.832031 -15.296875 3.28125 -15.453125 C 3.726562 -15.617188 4.207031 -15.703125 4.71875 -15.703125 C 5.664062 -15.703125 6.507812 -15.492188 7.25 -15.078125 C 8 -14.660156 8.726562 -14.164062 9.4375 -13.59375 C 9.988281 -13.132812 10.398438 -12.769531 10.671875 -12.5 C 10.953125 -12.238281 11.113281 -12.109375 11.15625 -12.109375 C 11.195312 -12.148438 11.25 -12.21875 11.3125 -12.3125 C 11.382812 -12.414062 11.5 -12.613281 11.65625 -12.90625 C 11.800781 -13.207031 11.941406 -13.492188 12.078125 -13.765625 C 12.210938 -14.046875 12.332031 -14.304688 12.4375 -14.546875 C 12.851562 -15.472656 13.007812 -16.054688 12.90625 -16.296875 C 12.863281 -16.390625 12.875 -16.476562 12.9375 -16.5625 C 13.09375 -16.757812 13.316406 -16.914062 13.609375 -17.03125 C 13.910156 -17.15625 14.179688 -17.242188 14.421875 -17.296875 C 14.535156 -17.335938 14.648438 -17.359375 14.765625 -17.359375 C 14.890625 -17.359375 15.003906 -17.359375 15.109375 -17.359375 C 15.441406 -17.359375 15.738281 -17.289062 16 -17.15625 C 16.550781 -16.875 16.859375 -16.734375 16.921875 -16.734375 C 16.972656 -16.734375 17.023438 -16.691406 17.078125 -16.609375 C 17.128906 -16.535156 17.234375 -16.457031 17.390625 -16.375 C 17.628906 -16.21875 17.890625 -15.988281 18.171875 -15.6875 C 18.460938 -15.394531 18.65625 -15.140625 18.75 -14.921875 C 18.925781 -14.523438 18.984375 -14.171875 18.921875 -13.859375 C 18.867188 -13.546875 18.6875 -13.207031 18.375 -12.84375 C 18.132812 -12.53125 17.851562 -12.140625 17.53125 -11.671875 C 17.21875 -11.210938 16.875 -10.664062 16.5 -10.03125 C 16.382812 -9.8125 16.269531 -9.628906 16.15625 -9.484375 C 16.050781 -9.335938 15.96875 -9.210938 15.90625 -9.109375 C 15.6875 -8.753906 15.5 -8.410156 15.34375 -8.078125 L 15.015625 -7.59375 L 16.296875 -6.234375 C 17.335938 -5.179688 18.148438 -4.320312 18.734375 -3.65625 C 19.316406 -3 19.707031 -2.492188 19.90625 -2.140625 C 20.320312 -1.441406 20.570312 -0.816406 20.65625 -0.265625 C 20.75 0.285156 20.695312 0.78125 20.5 1.21875 C 20.34375 1.53125 20.097656 1.832031 19.765625 2.125 C 19.429688 2.425781 19.113281 2.628906 18.8125 2.734375 C 18.476562 2.828125 18.015625 2.875 17.421875 2.875 C 17.285156 2.875 17.132812 2.804688 16.96875 2.671875 C 16.65625 2.367188 16.398438 2.140625 16.203125 1.984375 C 16.003906 1.828125 15.882812 1.726562 15.84375 1.6875 C 15.507812 1.3125 15.207031 1.050781 14.9375 0.90625 C 14.675781 0.757812 14.304688 0.644531 13.828125 0.5625 C 13.734375 0.519531 13.632812 0.492188 13.53125 0.484375 C 13.4375 0.472656 13.335938 0.453125 13.234375 0.421875 C 13.117188 0.398438 13.007812 0.378906 12.90625 0.359375 C 12.863281 0.335938 12.785156 0.328125 12.671875 0.328125 C 12.554688 0.328125 12.398438 0.316406 12.203125 0.296875 L 11.65625 0.265625 L 12.28125 0.0625 C 12.519531 0 12.710938 -0.0507812 12.859375 -0.09375 C 13.015625 -0.144531 13.148438 -0.179688 13.265625 -0.203125 C 13.421875 -0.285156 13.59375 -0.363281 13.78125 -0.4375 C 13.96875 -0.519531 14.0625 -0.582031 14.0625 -0.625 C 14.0625 -0.664062 13.957031 -0.8125 13.75 -1.0625 C 13.539062 -1.320312 13.304688 -1.597656 13.046875 -1.890625 C 12.796875 -2.191406 12.554688 -2.46875 12.328125 -2.71875 C 12.097656 -2.976562 11.945312 -3.117188 11.875 -3.140625 C 11.851562 -3.003906 11.664062 -2.734375 11.3125 -2.328125 C 10.96875 -1.921875 10.578125 -1.488281 10.140625 -1.03125 C 9.710938 -0.582031 9.296875 -0.160156 8.890625 0.234375 C 8.484375 0.628906 8.203125 0.890625 8.046875 1.015625 C 7.609375 1.390625 7.109375 1.691406 6.546875 1.921875 C 5.984375 2.160156 5.40625 2.28125 4.8125 2.28125 C 4.3125 2.238281 4.0625 2.179688 4.0625 2.109375 C 4.0625 2.085938 3.984375 2.078125 3.828125 2.078125 C 3.671875 2.078125 3.539062 2.046875 3.4375 1.984375 C 3.320312 1.890625 3.144531 1.78125 2.90625 1.65625 C 2.707031 1.539062 2.578125 1.453125 2.515625 1.390625 C 2.460938 1.335938 2.445312 1.257812 2.46875 1.15625 C 2.519531 1.113281 2.515625 1.09375 2.453125 1.09375 C 2.398438 1.09375 2.363281 1.046875 2.34375 0.953125 C 2.164062 0.597656 2.035156 0.265625 1.953125 -0.046875 C 1.878906 -0.367188 1.800781 -0.71875 1.71875 -1.09375 C 1.644531 -1.332031 1.59375 -1.515625 1.5625 -1.640625 C 1.53125 -1.773438 1.503906 -1.863281 1.484375 -1.90625 C 1.460938 -1.957031 1.441406 -2.015625 1.421875 -2.078125 C 1.398438 -2.140625 1.378906 -2.21875 1.359375 -2.3125 C 1.304688 -2.488281 1.347656 -2.640625 1.484375 -2.765625 C 1.546875 -2.835938 1.585938 -2.898438 1.609375 -2.953125 C 1.640625 -3.003906 1.664062 -3.054688 1.6875 -3.109375 Z M 1.6875 -3.109375 "/></g></g></g></svg>