<svg xmlns="http://www.w3.org/2000/svg" xmlns:xlink="http://www.w3.org/1999/xlink" width="500" zoomAndPan="magnify" viewBox="0 0 375 374.999991" height="500" preserveAspectRatio="xMidYMid meet" version="1.0"><defs><g/><clipPath id="475acb114e"><path d="M 162 140 L 185 140 L 185 220.402344 L 162 220.402344 Z M 162 140 " clip-rule="nonzero"/></clipPath><clipPath id="23e5a5eb5e"><path d="M 161 86.902344 L 174 86.902344 L 174 100 L 161 100 Z M 161 86.902344 " clip-rule="nonzero"/></clipPath><clipPath id="d4d2b94089"><path d="M 150 86.902344 L 157 86.902344 L 157 94 L 150 94 Z M 150 86.902344 " clip-rule="nonzero"/></clipPath><clipPath id="d1ef23f201"><path d="M 162 140 L 185 140 L 185 220.402344 L 162 220.402344 Z M 162 140 " clip-rule="nonzero"/></clipPath></defs><path fill="#b2b2b2" d="M 238.820312 156.136719 L 238.820312 136.898438 L 225.386719 146.5625 L 217.253906 152.324219 L 200.015625 164.644531 L 184.636719 153.652344 L 184.636719 180.335938 L 200.015625 191.238281 L 217.253906 179.007812 L 218.667969 177.941406 L 238.820312 163.492188 Z M 238.820312 156.136719 " fill-opacity="1" fill-rule="evenodd"/><g clip-path="url(#475acb114e)"><path fill="#fce900" d="M 184.636719 140.710938 L 175.53125 147.183594 L 162.980469 156.136719 L 162.980469 220.402344 L 184.636719 204.980469 Z M 184.636719 140.710938 " fill-opacity="1" fill-rule="evenodd"/></g><path fill="#ec268f" d="M 218.667969 177.941406 L 200.015625 164.644531 L 187.289062 155.605469 L 184.636719 153.652344 L 184.636719 180.335938 L 200.015625 191.238281 L 217.253906 179.007812 Z M 218.667969 177.941406 " fill-opacity="1" fill-rule="evenodd"/><path fill="#29cbe2" d="M 200.015625 164.644531 L 218.667969 177.941406 L 238.820312 163.492188 L 238.820312 136.898438 L 225.386719 146.5625 L 217.253906 152.324219 Z M 200.015625 164.644531 " fill-opacity="1" fill-rule="evenodd"/><path fill="#ec268f" d="M 149.71875 116.421875 L 160.417969 116.421875 L 160.417969 127.148438 L 149.71875 127.148438 Z M 149.71875 116.421875 " fill-opacity="1" fill-rule="evenodd"/><path fill="#fce900" d="M 158.558594 131.226562 L 172.261719 131.226562 L 172.261719 144.878906 L 158.558594 144.878906 Z M 158.558594 131.226562 " fill-opacity="1" fill-rule="evenodd"/><path fill="#a8cf45" d="M 170.667969 112.964844 L 180.214844 112.964844 L 180.214844 122.539062 L 170.667969 122.539062 Z M 170.667969 112.964844 " fill-opacity="1" fill-rule="evenodd"/><g clip-path="url(#23e5a5eb5e)"><path fill="#fce900" d="M 161.125 86.992188 L 173.675781 86.992188 L 173.675781 99.667969 L 161.125 99.667969 Z M 161.125 86.992188 " fill-opacity="1" fill-rule="evenodd"/></g><path fill="#a8cf45" d="M 146.183594 100.378906 L 155.644531 100.378906 L 155.644531 109.863281 L 146.183594 109.863281 Z M 146.183594 100.378906 " fill-opacity="1" fill-rule="evenodd"/><path fill="#29cbe2" d="M 136.019531 124.84375 L 145.476562 124.84375 L 145.476562 134.417969 L 136.019531 134.417969 Z M 136.019531 124.84375 " fill-opacity="1" fill-rule="evenodd"/><g clip-path="url(#d4d2b94089)"><path fill="#ec268f" d="M 150.339844 86.902344 L 156.613281 86.902344 L 156.613281 93.199219 L 150.339844 93.199219 Z M 150.339844 86.902344 " fill-opacity="1" fill-rule="evenodd"/></g><path fill="#ec268f" d="M 160.417969 104.277344 L 166.691406 104.277344 L 166.691406 110.574219 L 160.417969 110.574219 Z M 160.417969 104.277344 " fill-opacity="1" fill-rule="evenodd"/><path fill="#eca42d" d="M 174.914062 100.910156 L 181.277344 100.910156 L 181.277344 107.203125 L 174.914062 107.203125 Z M 174.914062 100.910156 " fill-opacity="1" fill-rule="evenodd"/><path fill="#29cbe2" d="M 139.023438 114.5625 L 145.300781 114.5625 L 145.300781 120.855469 L 139.023438 120.855469 Z M 139.023438 114.5625 " fill-opacity="1" fill-rule="evenodd"/><path fill="#eca42d" d="M 140.882812 91.691406 L 147.15625 91.691406 L 147.15625 97.984375 L 140.882812 97.984375 Z M 140.882812 91.691406 " fill-opacity="1" fill-rule="evenodd"/><path fill="#eca42d" d="M 184.636719 117.488281 L 200.902344 129.097656 L 217.253906 140.710938 L 217.253906 152.324219 L 225.386719 146.5625 L 238.820312 136.898438 L 238.820312 129.542969 L 219.550781 115.800781 L 217.253906 114.117188 L 200.902344 102.503906 L 184.636719 114.117188 L 183.046875 115.183594 L 183.046875 116.335938 Z M 184.636719 117.488281 " fill-opacity="1" fill-rule="evenodd"/><path fill="#a8cf45" d="M 174.734375 147.714844 L 162.980469 147.714844 L 162.980469 156.136719 Z M 183.046875 116.335938 L 183.046875 125.375 L 168.726562 125.375 L 164.660156 128.300781 L 175.089844 128.300781 L 175.089844 147.539062 L 175.53125 147.273438 L 184.636719 140.800781 L 200.902344 129.1875 L 184.636719 117.574219 L 183.046875 116.511719 Z M 183.046875 116.335938 " fill-opacity="1" fill-rule="evenodd"/><path fill="#a8cf45" d="M 175.089844 128.300781 L 175.089844 147.539062 L 175.53125 147.183594 L 176.679688 146.386719 L 184.636719 140.710938 L 200.902344 129.097656 L 184.636719 117.488281 L 183.046875 116.335938 L 183.046875 125.375 L 168.726562 125.375 L 166.957031 126.707031 L 166.425781 127.0625 L 164.660156 128.300781 Z M 175.089844 128.300781 " fill-opacity="1" fill-rule="evenodd"/><path fill="#a8cf45" d="M 174.734375 147.714844 L 162.980469 147.714844 L 162.980469 156.136719 L 172.527344 149.398438 Z M 174.734375 147.714844 " fill-opacity="1" fill-rule="evenodd"/><g clip-path="url(#d1ef23f201)"><path fill="#fce900" d="M 184.636719 140.710938 L 175.53125 147.183594 L 162.980469 156.136719 L 162.980469 220.402344 L 184.636719 204.980469 Z M 184.636719 140.710938 " fill-opacity="1" fill-rule="evenodd"/></g><path fill="#ec268f" d="M 218.667969 177.941406 L 200.015625 164.644531 L 187.289062 155.605469 L 184.636719 153.652344 L 184.636719 180.335938 L 200.015625 191.238281 L 217.253906 179.007812 Z M 218.667969 177.941406 " fill-opacity="1" fill-rule="evenodd"/><path fill="#29cbe2" d="M 200.015625 164.644531 L 218.667969 177.941406 L 238.820312 163.492188 L 238.820312 136.898438 L 225.386719 146.5625 L 217.253906 152.324219 Z M 200.015625 164.644531 " fill-opacity="1" fill-rule="evenodd"/><path fill="#eca42d" d="M 184.636719 117.488281 L 200.902344 129.097656 L 217.253906 140.710938 L 217.253906 152.324219 L 225.386719 146.5625 L 238.820312 136.898438 L 238.820312 129.542969 L 219.550781 115.800781 L 217.253906 114.117188 L 200.902344 102.503906 L 184.636719 114.117188 L 183.046875 115.183594 L 183.046875 116.335938 Z M 184.636719 117.488281 " fill-opacity="1" fill-rule="evenodd"/><path fill="#29cbe2" d="M 175.089844 128.300781 L 175.089844 147.539062 L 175.53125 147.183594 L 176.679688 146.386719 L 184.636719 140.710938 L 200.902344 129.097656 L 184.636719 117.488281 L 183.046875 116.335938 L 183.046875 125.375 L 168.726562 125.375 L 166.957031 126.707031 L 166.425781 127.0625 L 164.660156 128.300781 Z M 175.089844 128.300781 " fill-opacity="1" fill-rule="evenodd"/><g fill="#d9d9d9" fill-opacity="1"><g transform="translate(128.170517, 242.252576)"><g><path d="M 1.09375 -17.5 L 9.1875 -17.5 C 11.851562 -17.5 13.1875 -16.367188 13.1875 -14.109375 L 13.1875 -9.09375 C 13.1875 -6.84375 11.851562 -5.71875 9.1875 -5.71875 L 5.859375 -5.71875 L 5.859375 0 L 1.09375 0 Z M 8.421875 -9.734375 L 8.421875 -13.484375 C 8.421875 -13.890625 8.191406 -14.09375 7.734375 -14.09375 L 5.859375 -14.09375 L 5.859375 -9.125 L 7.734375 -9.125 C 8.191406 -9.125 8.421875 -9.328125 8.421875 -9.734375 Z M 8.421875 -9.734375 "/></g></g></g><g fill="#d9d9d9" fill-opacity="1"><g transform="translate(142.447536, 242.252576)"><g><path d="M 5.859375 -6.21875 L 5.859375 0 L 1.09375 0 L 1.09375 -17.5 L 9.1875 -17.5 C 11.851562 -17.5 13.1875 -16.367188 13.1875 -14.109375 L 13.1875 -9.59375 C 13.1875 -7.863281 12.40625 -6.800781 10.84375 -6.40625 L 14.0625 0 L 8.9375 0 L 6.15625 -6.21875 Z M 7.734375 -14.09375 L 5.859375 -14.09375 L 5.859375 -9.453125 L 7.734375 -9.453125 C 8.191406 -9.453125 8.421875 -9.65625 8.421875 -10.0625 L 8.421875 -13.484375 C 8.421875 -13.890625 8.191406 -14.09375 7.734375 -14.09375 Z M 7.734375 -14.09375 "/></g></g></g><g fill="#d9d9d9" fill-opacity="1"><g transform="translate(156.997015, 242.252576)"><g><path d="M 10 0 L 9.453125 -2.609375 L 5.265625 -2.609375 L 4.6875 0 L 0 0 L 4.5 -17.5 L 10.296875 -17.5 L 14.796875 0 Z M 6 -6 L 8.71875 -6 L 7.390625 -12.296875 Z M 6 -6 "/></g></g></g><g fill="#d9d9d9" fill-opacity="1"><g transform="translate(172.336629, 242.252576)"><g><path d="M 12.828125 -11.5 L 8.0625 -11.5 L 8.0625 -13.765625 C 8.0625 -14.160156 7.835938 -14.359375 7.390625 -14.359375 L 6.40625 -14.359375 C 5.945312 -14.359375 5.71875 -14.160156 5.71875 -13.765625 L 5.71875 -3.734375 C 5.71875 -3.335938 5.945312 -3.140625 6.40625 -3.140625 L 7.390625 -3.140625 C 7.835938 -3.140625 8.0625 -3.335938 8.0625 -3.734375 L 8.0625 -6.65625 L 6.703125 -6.65625 L 6.703125 -9.671875 L 12.828125 -9.671875 L 12.828125 -3.375 C 12.828125 -1.125 11.492188 0 8.828125 0 L 4.953125 0 C 2.285156 0 0.953125 -1.125 0.953125 -3.375 L 0.953125 -14.109375 C 0.953125 -16.367188 2.285156 -17.5 4.953125 -17.5 L 8.828125 -17.5 C 11.492188 -17.5 12.828125 -16.367188 12.828125 -14.109375 Z M 12.828125 -11.5 "/></g></g></g><g fill="#d9d9d9" fill-opacity="1"><g transform="translate(186.531902, 242.252576)"><g><path d="M 5.34375 0 L 1.09375 0 L 1.09375 -17.5 L 6.296875 -17.5 L 9.125 -8.140625 L 11.96875 -17.5 L 17.171875 -17.5 L 17.171875 0 L 12.9375 0 L 12.9375 -11.125 L 10.765625 -3.78125 L 7.5 -3.78125 L 5.34375 -11.0625 Z M 5.34375 0 "/></g></g></g><g fill="#d9d9d9" fill-opacity="1"><g transform="translate(205.331763, 242.252576)"><g><path d="M 1.09375 -17.5 L 5.859375 -17.5 L 5.859375 0 L 1.09375 0 Z M 1.09375 -17.5 "/></g></g></g><g fill="#d9d9d9" fill-opacity="1"><g transform="translate(212.824507, 242.252576)"><g><path d="M 11.640625 -17.5 L 11.640625 -14.09375 L 8.25 -14.09375 L 8.25 0 L 3.484375 0 L 3.484375 -14.09375 L 0.140625 -14.09375 L 0.140625 -17.5 Z M 11.640625 -17.5 "/></g></g></g><g fill="#d9d9d9" fill-opacity="1"><g transform="translate(225.139803, 242.252576)"><g><path d="M 1.09375 -17.5 L 5.859375 -17.5 L 5.859375 0 L 1.09375 0 Z M 1.09375 -17.5 "/></g></g></g><g fill="#d9d9d9" fill-opacity="1"><g transform="translate(232.632547, 242.252576)"><g><path d="M 9.640625 -8.890625 L 14.203125 0 L 8.828125 0 L 6.953125 -4.90625 L 5.0625 0 L 0 0 L 4.28125 -8.890625 L 0.109375 -17.5 L 5.5 -17.5 L 6.953125 -13.03125 L 8.421875 -17.5 L 13.546875 -17.5 Z M 9.640625 -8.890625 "/></g></g></g></svg>